999
FreeCAD v0.20 25157 (Git)
  0
SECTION
  2
HEADER
  9
$ACADVER
  1
AC1014
  9
$ACADMAINTVER
 70
     9
  9
$DWGCODEPAGE
  3
ANSI_1252
  9
$TEXTSTYLE
  7
STANDARD
  9
$DIMSTYLE
  2
STANDARD
  9
$DIMTXSTY
  7
STANDARD
  9
$CMLSTYLE
  2
STANDARD
  9
$PEXTMAX
 10
50
 20
50
 30
50
  9
$PEXTMIN
 10
0
 20
0
 30
0
  9
$HANDSEED
  5
FFFF
  0
ENDSEC
  0
SECTION
  2
CLASSES
  0
CLASS
  1
ACDBDICTIONARYWDFLT
  2
AcDbDictionaryWithDefault
  3
ObjectDBX Classes
 90
        0
280
     0
281
     0
  0
CLASS
  1
XRECORD
  2
AcDbXrecord
  3
ObjectDBX Classes
 90
        0
280
     0
281
     0
  0
CLASS
  1
LWPOLYLINE
  2
AcDbPolyline
  3
ObjectDBX Classes
 90
        0
280
     0
281
     1
  0
ENDSEC
  0
SECTION
  2
TABLES
  0
TABLE
  2
VPORT
  5
20
330
0
100
AcDbSymbolTable
 70
     1
  0
VPORT
  5
21
330
20
100
AcDbSymbolTableRecord
100
AcDbViewportTableRecord
  2
*ACTIVE
 70
     0
  0
ENDTAB
  0
TABLE
  2
LTYPE
  5
22
330
0
100
AcDbSymbolTable
 70
     1
  0
LTYPE
  5
23
330
21
100
AcDbSymbolTableRecord
100
AcDbLinetypeTableRecord
  2
BYBLOCK
 70
     0
  3

 72
    65
 73
     0
 40
0.0
  0
LTYPE
  5
24
330
21
100
AcDbSymbolTableRecord
100
AcDbLinetypeTableRecord
  2
BYLAYER
 70
     0
  3

 72
    65
 73
     0
 40
0.0
  0
LTYPE
  5
25
330
21
100
AcDbSymbolTableRecord
100
AcDbLinetypeTableRecord
  2
CONTINUOUS
 70
     0
  3
Solid line
 72
    65
 73
     0
 40
0.0
  0
ENDTAB
  0
TABLE
  2
LAYER
  5
BD0
330
0
100
AcDbSymbolTable
 70
8
  0
LAYER
  5
BD1
330
BD0
100
AcDbSymbolTableRecord
100
AcDbLayerTableRecord
  2
0
 70
   0
 62
   7
  6
CONTINUOUS
  0
LAYER
  5
BD2
330
BD0
100
AcDbSymbolTableRecord
100
AcDbLayerTableRecord
  2
none
 70
    0
 62
    7
  6
CONTINUOUS
  0
LAYER
  5
BD3
330
BD0
100
AcDbSymbolTableRecord
100
AcDbLayerTableRecord
  2
Shape2DView
 70
    0
 62
    7
  6
CONTINUOUS
  0
LAYER
  5
BD4
330
BD0
100
AcDbSymbolTableRecord
100
AcDbLayerTableRecord
  2
Shape2DView001
 70
    0
 62
    7
  6
CONTINUOUS
  0
LAYER
  5
BD5
330
BD0
100
AcDbSymbolTableRecord
100
AcDbLayerTableRecord
  2
Shape2DView002
 70
    0
 62
    7
  6
CONTINUOUS
  0
LAYER
  5
BD6
330
BD0
100
AcDbSymbolTableRecord
100
AcDbLayerTableRecord
  2
Shape2DView003
 70
    0
 62
    7
  6
CONTINUOUS
  0
LAYER
  5
BD7
330
BD0
100
AcDbSymbolTableRecord
100
AcDbLayerTableRecord
  2
Shape2DView004
 70
    0
 62
    7
  6
CONTINUOUS
  0
LAYER
  5
BD8
330
BD0
100
AcDbSymbolTableRecord
100
AcDbLayerTableRecord
  2
Shape2DView005
 70
    0
 62
    7
  6
CONTINUOUS
  0
ENDTAB
  0
TABLE
  2
STYLE
  5
70
330
0
100
AcDbSymbolTable
 70
     2
  0
STYLE
  5
71
330
70
100
AcDbSymbolTableRecord
100
AcDbTextStyleTableRecord
  2
STANDARD
 70
     0
 40
0.0
 41
1.0
 50
0.0
 71
     0
 42
2.5
  3
arial.ttf
  4

  0
STYLE
  5
72
330
70
100
AcDbSymbolTableRecord
100
AcDbTextStyleTableRecord
  2
ANNOTATIVE
 70
     0
 40
0.0
 41
1.0
 50
0.0
 71
     0
 42
2.5
  3
arial.ttf
  4

  0
ENDTAB
  0
TABLE
  2
VIEW
  5
73
330
0
100
AcDbSymbolTable
 70
     0
  0
ENDTAB
  0
TABLE
  2
UCS
  5
74
330
0
100
AcDbSymbolTable
 70
     0
  0
ENDTAB
  0
TABLE
  2
APPID
  5
75
330
0
100
AcDbSymbolTable
 70
     2
  0
APPID
  5
76
330
75
100
AcDbSymbolTableRecord
100
AcDbRegAppTableRecord
  2
ACAD
 70
     0
  0
APPID
  5
77
330
75
100
AcDbSymbolTableRecord
100
AcDbRegAppTableRecord
  2
ACADANNOTATIVE
 70
     0
  0
ENDTAB
  0
TABLE
  2
DIMSTYLE
  5
78
330
0
100
AcDbSymbolTable
 70
     2
  0
DIMSTYLE
105
79
330
78
100
AcDbSymbolTableRecord
100
AcDbDimStyleTableRecord
  2
STANDARD
 70
     0
  3

  4

  5

  6

  7

 40
0.0
 41
2.5
 42
0.625
 43
3.75
 44
1.25
 45
0.0
 46
0.0
 47
0.0
 48
0.0
140
2.5
141
2.5
142
0.0
143
0.03937007874016
144
1.0
145
0.0
146
1.0
147
0.625
 71
     0
 72
     0
 73
     0
 74
     0
 75
     0
 76
     0
 77
     1
 78
     8
170
     0
171
     3
172
     1
173
     0
174
     0
175
     0
176
     0
177
     0
178
     0
270
     2
271
     2
272
     2
273
     2
274
     3
340
71
275
     0
280
     0
281
     0
282
     0
283
     0
284
     8
285
     0
286
     0
287
     3
288
     0
  0
ENDTAB
  0
TABLE
  2
BLOCK_RECORD
  5
A01
330
0
100
AcDbSymbolTable
  70
5
  0
BLOCK_RECORD
  5
A02
330
A01
100
AcDbSymbolTableRecord
100
AcDbBlockTableRecord
  2
*MODEL_SPACE
  0
BLOCK_RECORD
  5
A03
330
A01
100
AcDbSymbolTableRecord
100
AcDbBlockTableRecord
  2
*PAPER_SPACE
  0
ENDTAB
  0
ENDSEC
  0
SECTION
  2
BLOCKS
  0
BLOCK
  5
A04
330
A02
100
AcDbEntity
  8
0
100
AcDbBlockBegin
  2
*MODEL_SPACE
 70
   0
 10
0
 20
0
 30
0
  3
*MODEL_SPACE
  1
 
  0
ENDBLK
  5
A05
330
A02
100
AcDbEntity
  8
0
100
AcDbBlockEnd
  0
BLOCK
  5
A06
330
A03
100
AcDbEntity
 67
1
  8
0
100
AcDbBlockBegin
  2
*PAPER_SPACE
 70
   0
 10
0
 20
0
 30
0
  3
*PAPER_SPACE
  1
 
  0
ENDBLK
  5
A07
330
A03
100
AcDbEntity
 67
    1
  8
0
100
AcDbBlockEnd
  0
ENDSEC
  0
SECTION
  2
ENTITIES
  0
LINE
  5
A08
330
A02
100
AcDbEntity
  8
Shape2DView
100
AcDbLine
 10
0
 20
0
 30
0
 11
0
 21
5.525
 31
0
  0
LINE
  5
A09
330
A02
100
AcDbEntity
  8
Shape2DView
100
AcDbLine
 10
75
 20
0
 30
0
 11
0
 21
0
 31
0
  0
LINE
  5
A0A
330
A02
100
AcDbEntity
  8
Shape2DView
100
AcDbLine
 10
75
 20
5.525
 30
0
 11
75
 21
0
 31
0
  0
LINE
  5
A0B
330
A02
100
AcDbEntity
  8
Shape2DView
100
AcDbLine
 10
69.5782
 20
5.525
 30
0
 11
75
 21
5.525
 31
0
  0
ARC
  5
A0C
330
A02
100
AcDbEntity
  8
Shape2DView
100
AcDbCircle
 10
69.2275
 20
5.7275
 30
0
 40
0.405
100
AcDbArc
 50
120
 51
-30
  0
LINE
  5
A0D
330
A02
100
AcDbEntity
  8
Shape2DView
100
AcDbLine
 10
69.025
 20
6.07824
 30
0
 11
69.025
 21
14.7218
 31
0
  0
ARC
  5
A0E
330
A02
100
AcDbEntity
  8
Shape2DView
100
AcDbCircle
 10
69.2275
 20
15.0725
 30
0
 40
0.405
100
AcDbArc
 50
30
 51
-120
  0
LINE
  5
A0F
330
A02
100
AcDbEntity
  8
Shape2DView
100
AcDbLine
 10
69.5782
 20
15.275
 30
0
 11
75
 21
15.275
 31
0
  0
LINE
  5
A10
330
A02
100
AcDbEntity
  8
Shape2DView
100
AcDbLine
 10
75
 20
26.325
 30
0
 11
75
 21
15.275
 31
0
  0
LINE
  5
A11
330
A02
100
AcDbEntity
  8
Shape2DView
100
AcDbLine
 10
69.5782
 20
26.325
 30
0
 11
75
 21
26.325
 31
0
  0
ARC
  5
A12
330
A02
100
AcDbEntity
  8
Shape2DView
100
AcDbCircle
 10
69.2275
 20
26.5275
 30
0
 40
0.405
100
AcDbArc
 50
120
 51
-30
  0
LINE
  5
A13
330
A02
100
AcDbEntity
  8
Shape2DView
100
AcDbLine
 10
69.025
 20
26.8782
 30
0
 11
69.025
 21
35.5218
 31
0
  0
ARC
  5
A14
330
A02
100
AcDbEntity
  8
Shape2DView
100
AcDbCircle
 10
69.2275
 20
35.8725
 30
0
 40
0.405
100
AcDbArc
 50
30
 51
-120
  0
LINE
  5
A15
330
A02
100
AcDbEntity
  8
Shape2DView
100
AcDbLine
 10
69.5782
 20
36.075
 30
0
 11
75
 21
36.075
 31
0
  0
LINE
  5
A16
330
A02
100
AcDbEntity
  8
Shape2DView
100
AcDbLine
 10
75
 20
47.125
 30
0
 11
75
 21
36.075
 31
0
  0
LINE
  5
A17
330
A02
100
AcDbEntity
  8
Shape2DView
100
AcDbLine
 10
69.5782
 20
47.125
 30
0
 11
75
 21
47.125
 31
0
  0
ARC
  5
A18
330
A02
100
AcDbEntity
  8
Shape2DView
100
AcDbCircle
 10
69.2275
 20
47.3275
 30
0
 40
0.405
100
AcDbArc
 50
120
 51
-30
  0
LINE
  5
A19
330
A02
100
AcDbEntity
  8
Shape2DView
100
AcDbLine
 10
69.025
 20
47.6782
 30
0
 11
69.025
 21
56.3218
 31
0
  0
ARC
  5
A1A
330
A02
100
AcDbEntity
  8
Shape2DView
100
AcDbCircle
 10
69.2275
 20
56.6725
 30
0
 40
0.405
100
AcDbArc
 50
30
 51
-120
  0
LINE
  5
A1B
330
A02
100
AcDbEntity
  8
Shape2DView
100
AcDbLine
 10
69.5782
 20
56.875
 30
0
 11
75
 21
56.875
 31
0
  0
LINE
  5
A1C
330
A02
100
AcDbEntity
  8
Shape2DView
100
AcDbLine
 10
75
 20
67.925
 30
0
 11
75
 21
56.875
 31
0
  0
LINE
  5
A1D
330
A02
100
AcDbEntity
  8
Shape2DView
100
AcDbLine
 10
69.5782
 20
67.925
 30
0
 11
75
 21
67.925
 31
0
  0
ARC
  5
A1E
330
A02
100
AcDbEntity
  8
Shape2DView
100
AcDbCircle
 10
69.2275
 20
68.1275
 30
0
 40
0.405
100
AcDbArc
 50
120
 51
-30
  0
LINE
  5
A1F
330
A02
100
AcDbEntity
  8
Shape2DView
100
AcDbLine
 10
69.025
 20
68.4782
 30
0
 11
69.025
 21
77.1218
 31
0
  0
ARC
  5
A20
330
A02
100
AcDbEntity
  8
Shape2DView
100
AcDbCircle
 10
69.2275
 20
77.4725
 30
0
 40
0.405
100
AcDbArc
 50
30
 51
-120
  0
LINE
  5
A21
330
A02
100
AcDbEntity
  8
Shape2DView
100
AcDbLine
 10
69.5782
 20
77.675
 30
0
 11
75
 21
77.675
 31
0
  0
LINE
  5
A22
330
A02
100
AcDbEntity
  8
Shape2DView
100
AcDbLine
 10
75
 20
88.725
 30
0
 11
75
 21
77.675
 31
0
  0
LINE
  5
A23
330
A02
100
AcDbEntity
  8
Shape2DView
100
AcDbLine
 10
69.5782
 20
88.725
 30
0
 11
75
 21
88.725
 31
0
  0
ARC
  5
A24
330
A02
100
AcDbEntity
  8
Shape2DView
100
AcDbCircle
 10
69.2275
 20
88.9275
 30
0
 40
0.405
100
AcDbArc
 50
120
 51
-30
  0
LINE
  5
A25
330
A02
100
AcDbEntity
  8
Shape2DView
100
AcDbLine
 10
69.025
 20
89.2782
 30
0
 11
69.025
 21
97.9218
 31
0
  0
ARC
  5
A26
330
A02
100
AcDbEntity
  8
Shape2DView
100
AcDbCircle
 10
69.2275
 20
98.2725
 30
0
 40
0.405
100
AcDbArc
 50
30
 51
-120
  0
LINE
  5
A27
330
A02
100
AcDbEntity
  8
Shape2DView
100
AcDbLine
 10
69.5782
 20
98.475
 30
0
 11
75
 21
98.475
 31
0
  0
LINE
  5
A28
330
A02
100
AcDbEntity
  8
Shape2DView
100
AcDbLine
 10
75
 20
104
 30
0
 11
75
 21
98.475
 31
0
  0
LINE
  5
A29
330
A02
100
AcDbEntity
  8
Shape2DView
100
AcDbLine
 10
0
 20
104
 30
0
 11
75
 21
104
 31
0
  0
LINE
  5
A2A
330
A02
100
AcDbEntity
  8
Shape2DView
100
AcDbLine
 10
0
 20
98.475
 30
0
 11
0
 21
104
 31
0
  0
LINE
  5
A2B
330
A02
100
AcDbEntity
  8
Shape2DView
100
AcDbLine
 10
1.33227e-15
 20
98.475
 30
0
 11
5.42176
 21
98.475
 31
0
  0
ARC
  5
A2C
330
A02
100
AcDbEntity
  8
Shape2DView
100
AcDbCircle
 10
5.7725
 20
98.2725
 30
0
 40
0.405
100
AcDbArc
 50
0
 51
150
  0
ARC
  5
A2D
330
A02
100
AcDbEntity
  8
Shape2DView
100
AcDbCircle
 10
5.7725
 20
98.2725
 30
0
 40
0.405
100
AcDbArc
 50
-60
 51
0
  0
LINE
  5
A2E
330
A02
100
AcDbEntity
  8
Shape2DView
100
AcDbLine
 10
5.975
 20
89.2782
 30
0
 11
5.975
 21
97.9218
 31
0
  0
ARC
  5
A2F
330
A02
100
AcDbEntity
  8
Shape2DView
100
AcDbCircle
 10
5.7725
 20
88.9275
 30
0
 40
0.405
100
AcDbArc
 50
0
 51
60
  0
ARC
  5
A30
330
A02
100
AcDbEntity
  8
Shape2DView
100
AcDbCircle
 10
5.7725
 20
88.9275
 30
0
 40
0.405
100
AcDbArc
 50
-150
 51
0
  0
LINE
  5
A31
330
A02
100
AcDbEntity
  8
Shape2DView
100
AcDbLine
 10
1.33227e-15
 20
88.725
 30
0
 11
5.42176
 21
88.725
 31
0
  0
LINE
  5
A32
330
A02
100
AcDbEntity
  8
Shape2DView
100
AcDbLine
 10
0
 20
77.675
 30
0
 11
0
 21
88.725
 31
0
  0
LINE
  5
A33
330
A02
100
AcDbEntity
  8
Shape2DView
100
AcDbLine
 10
1.33227e-15
 20
77.675
 30
0
 11
5.42176
 21
77.675
 31
0
  0
ARC
  5
A34
330
A02
100
AcDbEntity
  8
Shape2DView
100
AcDbCircle
 10
5.7725
 20
77.4725
 30
0
 40
0.405
100
AcDbArc
 50
0
 51
150
  0
ARC
  5
A35
330
A02
100
AcDbEntity
  8
Shape2DView
100
AcDbCircle
 10
5.7725
 20
77.4725
 30
0
 40
0.405
100
AcDbArc
 50
-60
 51
0
  0
LINE
  5
A36
330
A02
100
AcDbEntity
  8
Shape2DView
100
AcDbLine
 10
5.975
 20
68.4782
 30
0
 11
5.975
 21
77.1218
 31
0
  0
ARC
  5
A37
330
A02
100
AcDbEntity
  8
Shape2DView
100
AcDbCircle
 10
5.7725
 20
68.1275
 30
0
 40
0.405
100
AcDbArc
 50
0
 51
60
  0
ARC
  5
A38
330
A02
100
AcDbEntity
  8
Shape2DView
100
AcDbCircle
 10
5.7725
 20
68.1275
 30
0
 40
0.405
100
AcDbArc
 50
-150
 51
0
  0
LINE
  5
A39
330
A02
100
AcDbEntity
  8
Shape2DView
100
AcDbLine
 10
1.33227e-15
 20
67.925
 30
0
 11
5.42176
 21
67.925
 31
0
  0
LINE
  5
A3A
330
A02
100
AcDbEntity
  8
Shape2DView
100
AcDbLine
 10
0
 20
56.875
 30
0
 11
0
 21
67.925
 31
0
  0
LINE
  5
A3B
330
A02
100
AcDbEntity
  8
Shape2DView
100
AcDbLine
 10
1.33227e-15
 20
56.875
 30
0
 11
5.42176
 21
56.875
 31
0
  0
ARC
  5
A3C
330
A02
100
AcDbEntity
  8
Shape2DView
100
AcDbCircle
 10
5.7725
 20
56.6725
 30
0
 40
0.405
100
AcDbArc
 50
0
 51
150
  0
ARC
  5
A3D
330
A02
100
AcDbEntity
  8
Shape2DView
100
AcDbCircle
 10
5.7725
 20
56.6725
 30
0
 40
0.405
100
AcDbArc
 50
-60
 51
0
  0
LINE
  5
A3E
330
A02
100
AcDbEntity
  8
Shape2DView
100
AcDbLine
 10
5.975
 20
47.6782
 30
0
 11
5.975
 21
56.3218
 31
0
  0
ARC
  5
A3F
330
A02
100
AcDbEntity
  8
Shape2DView
100
AcDbCircle
 10
5.7725
 20
47.3275
 30
0
 40
0.405
100
AcDbArc
 50
0
 51
60
  0
ARC
  5
A40
330
A02
100
AcDbEntity
  8
Shape2DView
100
AcDbCircle
 10
5.7725
 20
47.3275
 30
0
 40
0.405
100
AcDbArc
 50
-150
 51
0
  0
LINE
  5
A41
330
A02
100
AcDbEntity
  8
Shape2DView
100
AcDbLine
 10
1.33227e-15
 20
47.125
 30
0
 11
5.42176
 21
47.125
 31
0
  0
LINE
  5
A42
330
A02
100
AcDbEntity
  8
Shape2DView
100
AcDbLine
 10
0
 20
36.075
 30
0
 11
0
 21
47.125
 31
0
  0
LINE
  5
A43
330
A02
100
AcDbEntity
  8
Shape2DView
100
AcDbLine
 10
1.33227e-15
 20
36.075
 30
0
 11
5.42176
 21
36.075
 31
0
  0
ARC
  5
A44
330
A02
100
AcDbEntity
  8
Shape2DView
100
AcDbCircle
 10
5.7725
 20
35.8725
 30
0
 40
0.405
100
AcDbArc
 50
0
 51
150
  0
ARC
  5
A45
330
A02
100
AcDbEntity
  8
Shape2DView
100
AcDbCircle
 10
5.7725
 20
35.8725
 30
0
 40
0.405
100
AcDbArc
 50
-60
 51
0
  0
LINE
  5
A46
330
A02
100
AcDbEntity
  8
Shape2DView
100
AcDbLine
 10
5.975
 20
26.8782
 30
0
 11
5.975
 21
35.5218
 31
0
  0
ARC
  5
A47
330
A02
100
AcDbEntity
  8
Shape2DView
100
AcDbCircle
 10
5.7725
 20
26.5275
 30
0
 40
0.405
100
AcDbArc
 50
0
 51
60
  0
ARC
  5
A48
330
A02
100
AcDbEntity
  8
Shape2DView
100
AcDbCircle
 10
5.7725
 20
26.5275
 30
0
 40
0.405
100
AcDbArc
 50
-150
 51
0
  0
LINE
  5
A49
330
A02
100
AcDbEntity
  8
Shape2DView
100
AcDbLine
 10
1.33227e-15
 20
26.325
 30
0
 11
5.42176
 21
26.325
 31
0
  0
LINE
  5
A4A
330
A02
100
AcDbEntity
  8
Shape2DView
100
AcDbLine
 10
0
 20
15.275
 30
0
 11
0
 21
26.325
 31
0
  0
LINE
  5
A4B
330
A02
100
AcDbEntity
  8
Shape2DView
100
AcDbLine
 10
1.33227e-15
 20
15.275
 30
0
 11
5.42176
 21
15.275
 31
0
  0
ARC
  5
A4C
330
A02
100
AcDbEntity
  8
Shape2DView
100
AcDbCircle
 10
5.7725
 20
15.0725
 30
0
 40
0.405
100
AcDbArc
 50
0
 51
150
  0
ARC
  5
A4D
330
A02
100
AcDbEntity
  8
Shape2DView
100
AcDbCircle
 10
5.7725
 20
15.0725
 30
0
 40
0.405
100
AcDbArc
 50
-60
 51
0
  0
LINE
  5
A4E
330
A02
100
AcDbEntity
  8
Shape2DView
100
AcDbLine
 10
5.975
 20
6.07824
 30
0
 11
5.975
 21
14.7218
 31
0
  0
ARC
  5
A4F
330
A02
100
AcDbEntity
  8
Shape2DView
100
AcDbCircle
 10
5.7725
 20
5.7275
 30
0
 40
0.405
100
AcDbArc
 50
0
 51
60
  0
ARC
  5
A50
330
A02
100
AcDbEntity
  8
Shape2DView
100
AcDbCircle
 10
5.7725
 20
5.7275
 30
0
 40
0.405
100
AcDbArc
 50
-150
 51
0
  0
LINE
  5
A51
330
A02
100
AcDbEntity
  8
Shape2DView
100
AcDbLine
 10
1.33227e-15
 20
5.525
 30
0
 11
5.42176
 21
5.525
 31
0
  0
ARC
  5
A52
330
A02
100
AcDbEntity
  8
Shape2DView
100
AcDbCircle
 10
40.2767
 20
15.0767
 30
0
 40
0.396667
100
AcDbArc
 50
0
 51
150
  0
ARC
  5
A53
330
A02
100
AcDbEntity
  8
Shape2DView
100
AcDbCircle
 10
40.2767
 20
15.0767
 30
0
 40
0.396667
100
AcDbArc
 50
-60
 51
0
  0
LINE
  5
A54
330
A02
100
AcDbEntity
  8
Shape2DView
100
AcDbLine
 10
40.475
 20
6.06686
 30
0
 11
40.475
 21
14.7331
 31
0
  0
ARC
  5
A55
330
A02
100
AcDbEntity
  8
Shape2DView
100
AcDbCircle
 10
40.2767
 20
5.72333
 30
0
 40
0.396667
100
AcDbArc
 50
0
 51
60
  0
ARC
  5
A56
330
A02
100
AcDbEntity
  8
Shape2DView
100
AcDbCircle
 10
40.2767
 20
5.72333
 30
0
 40
0.396667
100
AcDbArc
 50
-150
 51
0
  0
LINE
  5
A57
330
A02
100
AcDbEntity
  8
Shape2DView
100
AcDbLine
 10
35.0669
 20
5.525
 30
0
 11
39.9331
 21
5.525
 31
0
  0
ARC
  5
A58
330
A02
100
AcDbEntity
  8
Shape2DView
100
AcDbCircle
 10
34.7233
 20
5.72333
 30
0
 40
0.396667
100
AcDbArc
 50
120
 51
-30
  0
LINE
  5
A59
330
A02
100
AcDbEntity
  8
Shape2DView
100
AcDbLine
 10
34.525
 20
6.06686
 30
0
 11
34.525
 21
14.7331
 31
0
  0
ARC
  5
A5A
330
A02
100
AcDbEntity
  8
Shape2DView
100
AcDbCircle
 10
34.7233
 20
15.0767
 30
0
 40
0.396667
100
AcDbArc
 50
30
 51
-120
  0
LINE
  5
A5B
330
A02
100
AcDbEntity
  8
Shape2DView
100
AcDbLine
 10
35.0669
 20
15.275
 30
0
 11
39.9331
 21
15.275
 31
0
  0
ARC
  5
A5C
330
A02
100
AcDbEntity
  8
Shape2DView
100
AcDbCircle
 10
40.2767
 20
35.8767
 30
0
 40
0.396667
100
AcDbArc
 50
0
 51
150
  0
ARC
  5
A5D
330
A02
100
AcDbEntity
  8
Shape2DView
100
AcDbCircle
 10
40.2767
 20
35.8767
 30
0
 40
0.396667
100
AcDbArc
 50
-60
 51
0
  0
LINE
  5
A5E
330
A02
100
AcDbEntity
  8
Shape2DView
100
AcDbLine
 10
40.475
 20
26.8669
 30
0
 11
40.475
 21
35.5331
 31
0
  0
ARC
  5
A5F
330
A02
100
AcDbEntity
  8
Shape2DView
100
AcDbCircle
 10
40.2767
 20
26.5233
 30
0
 40
0.396667
100
AcDbArc
 50
0
 51
60
  0
ARC
  5
A60
330
A02
100
AcDbEntity
  8
Shape2DView
100
AcDbCircle
 10
40.2767
 20
26.5233
 30
0
 40
0.396667
100
AcDbArc
 50
-150
 51
0
  0
LINE
  5
A61
330
A02
100
AcDbEntity
  8
Shape2DView
100
AcDbLine
 10
35.0669
 20
26.325
 30
0
 11
39.9331
 21
26.325
 31
0
  0
ARC
  5
A62
330
A02
100
AcDbEntity
  8
Shape2DView
100
AcDbCircle
 10
34.7233
 20
26.5233
 30
0
 40
0.396667
100
AcDbArc
 50
120
 51
-30
  0
LINE
  5
A63
330
A02
100
AcDbEntity
  8
Shape2DView
100
AcDbLine
 10
34.525
 20
26.8669
 30
0
 11
34.525
 21
35.5331
 31
0
  0
ARC
  5
A64
330
A02
100
AcDbEntity
  8
Shape2DView
100
AcDbCircle
 10
34.7233
 20
35.8767
 30
0
 40
0.396667
100
AcDbArc
 50
30
 51
-120
  0
LINE
  5
A65
330
A02
100
AcDbEntity
  8
Shape2DView
100
AcDbLine
 10
35.0669
 20
36.075
 30
0
 11
39.9331
 21
36.075
 31
0
  0
ARC
  5
A66
330
A02
100
AcDbEntity
  8
Shape2DView
100
AcDbCircle
 10
40.2767
 20
56.6767
 30
0
 40
0.396667
100
AcDbArc
 50
0
 51
150
  0
ARC
  5
A67
330
A02
100
AcDbEntity
  8
Shape2DView
100
AcDbCircle
 10
40.2767
 20
56.6767
 30
0
 40
0.396667
100
AcDbArc
 50
-60
 51
0
  0
LINE
  5
A68
330
A02
100
AcDbEntity
  8
Shape2DView
100
AcDbLine
 10
40.475
 20
47.6669
 30
0
 11
40.475
 21
56.3331
 31
0
  0
ARC
  5
A69
330
A02
100
AcDbEntity
  8
Shape2DView
100
AcDbCircle
 10
40.2767
 20
47.3233
 30
0
 40
0.396667
100
AcDbArc
 50
0
 51
60
  0
ARC
  5
A6A
330
A02
100
AcDbEntity
  8
Shape2DView
100
AcDbCircle
 10
40.2767
 20
47.3233
 30
0
 40
0.396667
100
AcDbArc
 50
-150
 51
0
  0
LINE
  5
A6B
330
A02
100
AcDbEntity
  8
Shape2DView
100
AcDbLine
 10
35.0669
 20
47.125
 30
0
 11
39.9331
 21
47.125
 31
0
  0
ARC
  5
A6C
330
A02
100
AcDbEntity
  8
Shape2DView
100
AcDbCircle
 10
34.7233
 20
47.3233
 30
0
 40
0.396667
100
AcDbArc
 50
120
 51
-30
  0
LINE
  5
A6D
330
A02
100
AcDbEntity
  8
Shape2DView
100
AcDbLine
 10
34.525
 20
47.6669
 30
0
 11
34.525
 21
56.3331
 31
0
  0
ARC
  5
A6E
330
A02
100
AcDbEntity
  8
Shape2DView
100
AcDbCircle
 10
34.7233
 20
56.6767
 30
0
 40
0.396667
100
AcDbArc
 50
30
 51
-120
  0
LINE
  5
A6F
330
A02
100
AcDbEntity
  8
Shape2DView
100
AcDbLine
 10
35.0669
 20
56.875
 30
0
 11
39.9331
 21
56.875
 31
0
  0
ARC
  5
A70
330
A02
100
AcDbEntity
  8
Shape2DView
100
AcDbCircle
 10
40.2767
 20
77.4767
 30
0
 40
0.396667
100
AcDbArc
 50
0
 51
150
  0
ARC
  5
A71
330
A02
100
AcDbEntity
  8
Shape2DView
100
AcDbCircle
 10
40.2767
 20
77.4767
 30
0
 40
0.396667
100
AcDbArc
 50
-60
 51
0
  0
LINE
  5
A72
330
A02
100
AcDbEntity
  8
Shape2DView
100
AcDbLine
 10
40.475
 20
68.4669
 30
0
 11
40.475
 21
77.1331
 31
0
  0
ARC
  5
A73
330
A02
100
AcDbEntity
  8
Shape2DView
100
AcDbCircle
 10
40.2767
 20
68.1233
 30
0
 40
0.396667
100
AcDbArc
 50
0
 51
60
  0
ARC
  5
A74
330
A02
100
AcDbEntity
  8
Shape2DView
100
AcDbCircle
 10
40.2767
 20
68.1233
 30
0
 40
0.396667
100
AcDbArc
 50
-150
 51
0
  0
LINE
  5
A75
330
A02
100
AcDbEntity
  8
Shape2DView
100
AcDbLine
 10
35.0669
 20
67.925
 30
0
 11
39.9331
 21
67.925
 31
0
  0
ARC
  5
A76
330
A02
100
AcDbEntity
  8
Shape2DView
100
AcDbCircle
 10
34.7233
 20
68.1233
 30
0
 40
0.396667
100
AcDbArc
 50
120
 51
-30
  0
LINE
  5
A77
330
A02
100
AcDbEntity
  8
Shape2DView
100
AcDbLine
 10
34.525
 20
68.4669
 30
0
 11
34.525
 21
77.1331
 31
0
  0
ARC
  5
A78
330
A02
100
AcDbEntity
  8
Shape2DView
100
AcDbCircle
 10
34.7233
 20
77.4767
 30
0
 40
0.396667
100
AcDbArc
 50
30
 51
-120
  0
LINE
  5
A79
330
A02
100
AcDbEntity
  8
Shape2DView
100
AcDbLine
 10
35.0669
 20
77.675
 30
0
 11
39.9331
 21
77.675
 31
0
  0
ARC
  5
A7A
330
A02
100
AcDbEntity
  8
Shape2DView
100
AcDbCircle
 10
40.2767
 20
98.2767
 30
0
 40
0.396667
100
AcDbArc
 50
0
 51
150
  0
ARC
  5
A7B
330
A02
100
AcDbEntity
  8
Shape2DView
100
AcDbCircle
 10
40.2767
 20
98.2767
 30
0
 40
0.396667
100
AcDbArc
 50
-60
 51
0
  0
LINE
  5
A7C
330
A02
100
AcDbEntity
  8
Shape2DView
100
AcDbLine
 10
40.475
 20
89.2669
 30
0
 11
40.475
 21
97.9331
 31
0
  0
ARC
  5
A7D
330
A02
100
AcDbEntity
  8
Shape2DView
100
AcDbCircle
 10
40.2767
 20
88.9233
 30
0
 40
0.396667
100
AcDbArc
 50
0
 51
60
  0
ARC
  5
A7E
330
A02
100
AcDbEntity
  8
Shape2DView
100
AcDbCircle
 10
40.2767
 20
88.9233
 30
0
 40
0.396667
100
AcDbArc
 50
-150
 51
0
  0
LINE
  5
A7F
330
A02
100
AcDbEntity
  8
Shape2DView
100
AcDbLine
 10
35.0669
 20
88.725
 30
0
 11
39.9331
 21
88.725
 31
0
  0
ARC
  5
A80
330
A02
100
AcDbEntity
  8
Shape2DView
100
AcDbCircle
 10
34.7233
 20
88.9233
 30
0
 40
0.396667
100
AcDbArc
 50
120
 51
-30
  0
LINE
  5
A81
330
A02
100
AcDbEntity
  8
Shape2DView
100
AcDbLine
 10
34.525
 20
89.2669
 30
0
 11
34.525
 21
97.9331
 31
0
  0
ARC
  5
A82
330
A02
100
AcDbEntity
  8
Shape2DView
100
AcDbCircle
 10
34.7233
 20
98.2767
 30
0
 40
0.396667
100
AcDbArc
 50
30
 51
-120
  0
LINE
  5
A83
330
A02
100
AcDbEntity
  8
Shape2DView
100
AcDbLine
 10
35.0669
 20
98.475
 30
0
 11
39.9331
 21
98.475
 31
0
  0
LINE
  5
A84
330
A02
100
AcDbEntity
  8
Shape2DView001
100
AcDbLine
 10
160
 20
0
 30
0
 11
160
 21
11.625
 31
0
  0
LINE
  5
A85
330
A02
100
AcDbEntity
  8
Shape2DView001
100
AcDbLine
 10
85
 20
0
 30
0
 11
160
 21
0
 31
0
  0
LINE
  5
A86
330
A02
100
AcDbEntity
  8
Shape2DView001
100
AcDbLine
 10
85
 20
11.625
 30
0
 11
85
 21
0
 31
0
  0
LINE
  5
A87
330
A02
100
AcDbEntity
  8
Shape2DView001
100
AcDbLine
 10
90.4218
 20
11.625
 30
0
 11
85
 21
11.625
 31
0
  0
ARC
  5
A88
330
A02
100
AcDbEntity
  8
Shape2DView001
100
AcDbCircle
 10
90.7725
 20
11.8275
 30
0
 40
0.405
100
AcDbArc
 50
-150
 51
60
  0
LINE
  5
A89
330
A02
100
AcDbEntity
  8
Shape2DView001
100
AcDbLine
 10
90.975
 20
12.1782
 30
0
 11
90.975
 21
20.8218
 31
0
  0
ARC
  5
A8A
330
A02
100
AcDbEntity
  8
Shape2DView001
100
AcDbCircle
 10
90.7725
 20
21.1725
 30
0
 40
0.405
100
AcDbArc
 50
-60
 51
150
  0
LINE
  5
A8B
330
A02
100
AcDbEntity
  8
Shape2DView001
100
AcDbLine
 10
90.4218
 20
21.375
 30
0
 11
85
 21
21.375
 31
0
  0
LINE
  5
A8C
330
A02
100
AcDbEntity
  8
Shape2DView001
100
AcDbLine
 10
85
 20
32.625
 30
0
 11
85
 21
21.375
 31
0
  0
LINE
  5
A8D
330
A02
100
AcDbEntity
  8
Shape2DView001
100
AcDbLine
 10
90.4218
 20
32.625
 30
0
 11
85
 21
32.625
 31
0
  0
ARC
  5
A8E
330
A02
100
AcDbEntity
  8
Shape2DView001
100
AcDbCircle
 10
90.7725
 20
32.8275
 30
0
 40
0.405
100
AcDbArc
 50
-150
 51
60
  0
LINE
  5
A8F
330
A02
100
AcDbEntity
  8
Shape2DView001
100
AcDbLine
 10
90.975
 20
33.1782
 30
0
 11
90.975
 21
41.8218
 31
0
  0
ARC
  5
A90
330
A02
100
AcDbEntity
  8
Shape2DView001
100
AcDbCircle
 10
90.7725
 20
42.1725
 30
0
 40
0.405
100
AcDbArc
 50
-60
 51
150
  0
LINE
  5
A91
330
A02
100
AcDbEntity
  8
Shape2DView001
100
AcDbLine
 10
90.4218
 20
42.375
 30
0
 11
85
 21
42.375
 31
0
  0
LINE
  5
A92
330
A02
100
AcDbEntity
  8
Shape2DView001
100
AcDbLine
 10
85
 20
53.625
 30
0
 11
85
 21
42.375
 31
0
  0
LINE
  5
A93
330
A02
100
AcDbEntity
  8
Shape2DView001
100
AcDbLine
 10
90.4218
 20
53.625
 30
0
 11
85
 21
53.625
 31
0
  0
ARC
  5
A94
330
A02
100
AcDbEntity
  8
Shape2DView001
100
AcDbCircle
 10
90.7725
 20
53.8275
 30
0
 40
0.405
100
AcDbArc
 50
-150
 51
60
  0
LINE
  5
A95
330
A02
100
AcDbEntity
  8
Shape2DView001
100
AcDbLine
 10
90.975
 20
54.1782
 30
0
 11
90.975
 21
62.8218
 31
0
  0
ARC
  5
A96
330
A02
100
AcDbEntity
  8
Shape2DView001
100
AcDbCircle
 10
90.7725
 20
63.1725
 30
0
 40
0.405
100
AcDbArc
 50
-60
 51
150
  0
LINE
  5
A97
330
A02
100
AcDbEntity
  8
Shape2DView001
100
AcDbLine
 10
90.4218
 20
63.375
 30
0
 11
85
 21
63.375
 31
0
  0
LINE
  5
A98
330
A02
100
AcDbEntity
  8
Shape2DView001
100
AcDbLine
 10
85
 20
75
 30
0
 11
85
 21
63.375
 31
0
  0
LINE
  5
A99
330
A02
100
AcDbEntity
  8
Shape2DView001
100
AcDbLine
 10
160
 20
75
 30
0
 11
85
 21
75
 31
0
  0
LINE
  5
A9A
330
A02
100
AcDbEntity
  8
Shape2DView001
100
AcDbLine
 10
160
 20
63.375
 30
0
 11
160
 21
75
 31
0
  0
LINE
  5
A9B
330
A02
100
AcDbEntity
  8
Shape2DView001
100
AcDbLine
 10
160
 20
63.375
 30
0
 11
154.578
 21
63.375
 31
0
  0
ARC
  5
A9C
330
A02
100
AcDbEntity
  8
Shape2DView001
100
AcDbCircle
 10
154.227
 20
63.1725
 30
0
 40
0.405
100
AcDbArc
 50
30
 51
180
  0
ARC
  5
A9D
330
A02
100
AcDbEntity
  8
Shape2DView001
100
AcDbCircle
 10
154.227
 20
63.1725
 30
0
 40
0.405
100
AcDbArc
 50
180
 51
-120
  0
LINE
  5
A9E
330
A02
100
AcDbEntity
  8
Shape2DView001
100
AcDbLine
 10
154.025
 20
54.1782
 30
0
 11
154.025
 21
62.8218
 31
0
  0
ARC
  5
A9F
330
A02
100
AcDbEntity
  8
Shape2DView001
100
AcDbCircle
 10
154.227
 20
53.8275
 30
0
 40
0.405
100
AcDbArc
 50
120
 51
180
  0
ARC
  5
AA0
330
A02
100
AcDbEntity
  8
Shape2DView001
100
AcDbCircle
 10
154.227
 20
53.8275
 30
0
 40
0.405
100
AcDbArc
 50
180
 51
-30
  0
LINE
  5
AA1
330
A02
100
AcDbEntity
  8
Shape2DView001
100
AcDbLine
 10
160
 20
53.625
 30
0
 11
154.578
 21
53.625
 31
0
  0
LINE
  5
AA2
330
A02
100
AcDbEntity
  8
Shape2DView001
100
AcDbLine
 10
160
 20
42.375
 30
0
 11
160
 21
53.625
 31
0
  0
LINE
  5
AA3
330
A02
100
AcDbEntity
  8
Shape2DView001
100
AcDbLine
 10
160
 20
42.375
 30
0
 11
154.578
 21
42.375
 31
0
  0
ARC
  5
AA4
330
A02
100
AcDbEntity
  8
Shape2DView001
100
AcDbCircle
 10
154.227
 20
42.1725
 30
0
 40
0.405
100
AcDbArc
 50
30
 51
180
  0
ARC
  5
AA5
330
A02
100
AcDbEntity
  8
Shape2DView001
100
AcDbCircle
 10
154.227
 20
42.1725
 30
0
 40
0.405
100
AcDbArc
 50
180
 51
-120
  0
LINE
  5
AA6
330
A02
100
AcDbEntity
  8
Shape2DView001
100
AcDbLine
 10
154.025
 20
33.1782
 30
0
 11
154.025
 21
41.8218
 31
0
  0
ARC
  5
AA7
330
A02
100
AcDbEntity
  8
Shape2DView001
100
AcDbCircle
 10
154.227
 20
32.8275
 30
0
 40
0.405
100
AcDbArc
 50
120
 51
180
  0
ARC
  5
AA8
330
A02
100
AcDbEntity
  8
Shape2DView001
100
AcDbCircle
 10
154.227
 20
32.8275
 30
0
 40
0.405
100
AcDbArc
 50
180
 51
-30
  0
LINE
  5
AA9
330
A02
100
AcDbEntity
  8
Shape2DView001
100
AcDbLine
 10
160
 20
32.625
 30
0
 11
154.578
 21
32.625
 31
0
  0
LINE
  5
AAA
330
A02
100
AcDbEntity
  8
Shape2DView001
100
AcDbLine
 10
160
 20
21.375
 30
0
 11
160
 21
32.625
 31
0
  0
LINE
  5
AAB
330
A02
100
AcDbEntity
  8
Shape2DView001
100
AcDbLine
 10
160
 20
21.375
 30
0
 11
154.578
 21
21.375
 31
0
  0
ARC
  5
AAC
330
A02
100
AcDbEntity
  8
Shape2DView001
100
AcDbCircle
 10
154.227
 20
21.1725
 30
0
 40
0.405
100
AcDbArc
 50
30
 51
180
  0
ARC
  5
AAD
330
A02
100
AcDbEntity
  8
Shape2DView001
100
AcDbCircle
 10
154.227
 20
21.1725
 30
0
 40
0.405
100
AcDbArc
 50
180
 51
-120
  0
LINE
  5
AAE
330
A02
100
AcDbEntity
  8
Shape2DView001
100
AcDbLine
 10
154.025
 20
12.1782
 30
0
 11
154.025
 21
20.8218
 31
0
  0
ARC
  5
AAF
330
A02
100
AcDbEntity
  8
Shape2DView001
100
AcDbCircle
 10
154.227
 20
11.8275
 30
0
 40
0.405
100
AcDbArc
 50
120
 51
180
  0
ARC
  5
AB0
330
A02
100
AcDbEntity
  8
Shape2DView001
100
AcDbCircle
 10
154.227
 20
11.8275
 30
0
 40
0.405
100
AcDbArc
 50
180
 51
-30
  0
LINE
  5
AB1
330
A02
100
AcDbEntity
  8
Shape2DView001
100
AcDbLine
 10
160
 20
11.625
 30
0
 11
154.578
 21
11.625
 31
0
  0
ARC
  5
AB2
330
A02
100
AcDbEntity
  8
Shape2DView001
100
AcDbCircle
 10
119.723
 20
21.1767
 30
0
 40
0.396667
100
AcDbArc
 50
30
 51
180
  0
ARC
  5
AB3
330
A02
100
AcDbEntity
  8
Shape2DView001
100
AcDbCircle
 10
119.723
 20
21.1767
 30
0
 40
0.396667
100
AcDbArc
 50
180
 51
-120
  0
LINE
  5
AB4
330
A02
100
AcDbEntity
  8
Shape2DView001
100
AcDbLine
 10
119.525
 20
12.1669
 30
0
 11
119.525
 21
20.8331
 31
0
  0
ARC
  5
AB5
330
A02
100
AcDbEntity
  8
Shape2DView001
100
AcDbCircle
 10
119.723
 20
11.8233
 30
0
 40
0.396667
100
AcDbArc
 50
120
 51
180
  0
ARC
  5
AB6
330
A02
100
AcDbEntity
  8
Shape2DView001
100
AcDbCircle
 10
119.723
 20
11.8233
 30
0
 40
0.396667
100
AcDbArc
 50
180
 51
-30
  0
LINE
  5
AB7
330
A02
100
AcDbEntity
  8
Shape2DView001
100
AcDbLine
 10
124.933
 20
11.625
 30
0
 11
120.067
 21
11.625
 31
0
  0
ARC
  5
AB8
330
A02
100
AcDbEntity
  8
Shape2DView001
100
AcDbCircle
 10
125.277
 20
11.8233
 30
0
 40
0.396667
100
AcDbArc
 50
-150
 51
60
  0
LINE
  5
AB9
330
A02
100
AcDbEntity
  8
Shape2DView001
100
AcDbLine
 10
125.475
 20
12.1669
 30
0
 11
125.475
 21
20.8331
 31
0
  0
ARC
  5
ABA
330
A02
100
AcDbEntity
  8
Shape2DView001
100
AcDbCircle
 10
125.277
 20
21.1767
 30
0
 40
0.396667
100
AcDbArc
 50
-60
 51
150
  0
LINE
  5
ABB
330
A02
100
AcDbEntity
  8
Shape2DView001
100
AcDbLine
 10
124.933
 20
21.375
 30
0
 11
120.067
 21
21.375
 31
0
  0
ARC
  5
ABC
330
A02
100
AcDbEntity
  8
Shape2DView001
100
AcDbCircle
 10
119.723
 20
42.1767
 30
0
 40
0.396667
100
AcDbArc
 50
30
 51
180
  0
ARC
  5
ABD
330
A02
100
AcDbEntity
  8
Shape2DView001
100
AcDbCircle
 10
119.723
 20
42.1767
 30
0
 40
0.396667
100
AcDbArc
 50
180
 51
-120
  0
LINE
  5
ABE
330
A02
100
AcDbEntity
  8
Shape2DView001
100
AcDbLine
 10
119.525
 20
33.1669
 30
0
 11
119.525
 21
41.8331
 31
0
  0
ARC
  5
ABF
330
A02
100
AcDbEntity
  8
Shape2DView001
100
AcDbCircle
 10
119.723
 20
32.8233
 30
0
 40
0.396667
100
AcDbArc
 50
120
 51
180
  0
ARC
  5
AC0
330
A02
100
AcDbEntity
  8
Shape2DView001
100
AcDbCircle
 10
119.723
 20
32.8233
 30
0
 40
0.396667
100
AcDbArc
 50
180
 51
-30
  0
LINE
  5
AC1
330
A02
100
AcDbEntity
  8
Shape2DView001
100
AcDbLine
 10
124.933
 20
32.625
 30
0
 11
120.067
 21
32.625
 31
0
  0
ARC
  5
AC2
330
A02
100
AcDbEntity
  8
Shape2DView001
100
AcDbCircle
 10
125.277
 20
32.8233
 30
0
 40
0.396667
100
AcDbArc
 50
-150
 51
60
  0
LINE
  5
AC3
330
A02
100
AcDbEntity
  8
Shape2DView001
100
AcDbLine
 10
125.475
 20
33.1669
 30
0
 11
125.475
 21
41.8331
 31
0
  0
ARC
  5
AC4
330
A02
100
AcDbEntity
  8
Shape2DView001
100
AcDbCircle
 10
125.277
 20
42.1767
 30
0
 40
0.396667
100
AcDbArc
 50
-60
 51
150
  0
LINE
  5
AC5
330
A02
100
AcDbEntity
  8
Shape2DView001
100
AcDbLine
 10
124.933
 20
42.375
 30
0
 11
120.067
 21
42.375
 31
0
  0
ARC
  5
AC6
330
A02
100
AcDbEntity
  8
Shape2DView001
100
AcDbCircle
 10
119.723
 20
63.1767
 30
0
 40
0.396667
100
AcDbArc
 50
30
 51
180
  0
ARC
  5
AC7
330
A02
100
AcDbEntity
  8
Shape2DView001
100
AcDbCircle
 10
119.723
 20
63.1767
 30
0
 40
0.396667
100
AcDbArc
 50
180
 51
-120
  0
LINE
  5
AC8
330
A02
100
AcDbEntity
  8
Shape2DView001
100
AcDbLine
 10
119.525
 20
54.1669
 30
0
 11
119.525
 21
62.8331
 31
0
  0
ARC
  5
AC9
330
A02
100
AcDbEntity
  8
Shape2DView001
100
AcDbCircle
 10
119.723
 20
53.8233
 30
0
 40
0.396667
100
AcDbArc
 50
120
 51
180
  0
ARC
  5
ACA
330
A02
100
AcDbEntity
  8
Shape2DView001
100
AcDbCircle
 10
119.723
 20
53.8233
 30
0
 40
0.396667
100
AcDbArc
 50
180
 51
-30
  0
LINE
  5
ACB
330
A02
100
AcDbEntity
  8
Shape2DView001
100
AcDbLine
 10
124.933
 20
53.625
 30
0
 11
120.067
 21
53.625
 31
0
  0
ARC
  5
ACC
330
A02
100
AcDbEntity
  8
Shape2DView001
100
AcDbCircle
 10
125.277
 20
53.8233
 30
0
 40
0.396667
100
AcDbArc
 50
-150
 51
60
  0
LINE
  5
ACD
330
A02
100
AcDbEntity
  8
Shape2DView001
100
AcDbLine
 10
125.475
 20
54.1669
 30
0
 11
125.475
 21
62.8331
 31
0
  0
ARC
  5
ACE
330
A02
100
AcDbEntity
  8
Shape2DView001
100
AcDbCircle
 10
125.277
 20
63.1767
 30
0
 40
0.396667
100
AcDbArc
 50
-60
 51
150
  0
LINE
  5
ACF
330
A02
100
AcDbEntity
  8
Shape2DView001
100
AcDbLine
 10
124.933
 20
63.375
 30
0
 11
120.067
 21
63.375
 31
0
  0
LINE
  5
AD0
330
A02
100
AcDbEntity
  8
Shape2DView002
100
AcDbLine
 10
0
 20
114
 30
0
 11
0
 21
121
 31
0
  0
LINE
  5
AD1
330
A02
100
AcDbEntity
  8
Shape2DView002
100
AcDbLine
 10
75
 20
121
 30
0
 11
75
 21
114
 31
0
  0
LINE
  5
AD2
330
A02
100
AcDbEntity
  8
Shape2DView002
100
AcDbLine
 10
69.5782
 20
121
 30
0
 11
75
 21
121
 31
0
  0
ARC
  5
AD3
330
A02
100
AcDbEntity
  8
Shape2DView002
100
AcDbCircle
 10
69.2275
 20
121.203
 30
0
 40
0.405
100
AcDbArc
 50
120
 51
-30
  0
LINE
  5
AD4
330
A02
100
AcDbEntity
  8
Shape2DView002
100
AcDbLine
 10
69.025
 20
130.197
 30
0
 11
69.025
 21
121.553
 31
0
  0
ARC
  5
AD5
330
A02
100
AcDbEntity
  8
Shape2DView002
100
AcDbCircle
 10
69.2275
 20
130.548
 30
0
 40
0.405
100
AcDbArc
 50
30
 51
-120
  0
LINE
  5
AD6
330
A02
100
AcDbEntity
  8
Shape2DView002
100
AcDbLine
 10
69.5782
 20
130.75
 30
0
 11
75
 21
130.75
 31
0
  0
LINE
  5
AD7
330
A02
100
AcDbEntity
  8
Shape2DView002
100
AcDbLine
 10
75
 20
144.75
 30
0
 11
75
 21
130.75
 31
0
  0
LINE
  5
AD8
330
A02
100
AcDbEntity
  8
Shape2DView002
100
AcDbLine
 10
69.5782
 20
144.75
 30
0
 11
75
 21
144.75
 31
0
  0
ARC
  5
AD9
330
A02
100
AcDbEntity
  8
Shape2DView002
100
AcDbCircle
 10
69.2275
 20
144.952
 30
0
 40
0.405
100
AcDbArc
 50
120
 51
-30
  0
LINE
  5
ADA
330
A02
100
AcDbEntity
  8
Shape2DView002
100
AcDbLine
 10
69.025
 20
153.947
 30
0
 11
69.025
 21
145.303
 31
0
  0
ARC
  5
ADB
330
A02
100
AcDbEntity
  8
Shape2DView002
100
AcDbCircle
 10
69.2275
 20
154.298
 30
0
 40
0.405
100
AcDbArc
 50
30
 51
-120
  0
LINE
  5
ADC
330
A02
100
AcDbEntity
  8
Shape2DView002
100
AcDbLine
 10
69.5782
 20
154.5
 30
0
 11
75
 21
154.5
 31
0
  0
LINE
  5
ADD
330
A02
100
AcDbEntity
  8
Shape2DView002
100
AcDbLine
 10
75
 20
168.5
 30
0
 11
75
 21
154.5
 31
0
  0
LINE
  5
ADE
330
A02
100
AcDbEntity
  8
Shape2DView002
100
AcDbLine
 10
69.5782
 20
168.5
 30
0
 11
75
 21
168.5
 31
0
  0
ARC
  5
ADF
330
A02
100
AcDbEntity
  8
Shape2DView002
100
AcDbCircle
 10
69.2275
 20
168.702
 30
0
 40
0.405
100
AcDbArc
 50
120
 51
-30
  0
LINE
  5
AE0
330
A02
100
AcDbEntity
  8
Shape2DView002
100
AcDbLine
 10
69.025
 20
177.697
 30
0
 11
69.025
 21
169.053
 31
0
  0
ARC
  5
AE1
330
A02
100
AcDbEntity
  8
Shape2DView002
100
AcDbCircle
 10
69.2275
 20
178.048
 30
0
 40
0.405
100
AcDbArc
 50
30
 51
-120
  0
LINE
  5
AE2
330
A02
100
AcDbEntity
  8
Shape2DView002
100
AcDbLine
 10
69.5782
 20
178.25
 30
0
 11
75
 21
178.25
 31
0
  0
LINE
  5
AE3
330
A02
100
AcDbEntity
  8
Shape2DView002
100
AcDbLine
 10
75
 20
192.25
 30
0
 11
75
 21
178.25
 31
0
  0
LINE
  5
AE4
330
A02
100
AcDbEntity
  8
Shape2DView002
100
AcDbLine
 10
69.5782
 20
192.25
 30
0
 11
75
 21
192.25
 31
0
  0
ARC
  5
AE5
330
A02
100
AcDbEntity
  8
Shape2DView002
100
AcDbCircle
 10
69.2275
 20
192.452
 30
0
 40
0.405
100
AcDbArc
 50
120
 51
-30
  0
LINE
  5
AE6
330
A02
100
AcDbEntity
  8
Shape2DView002
100
AcDbLine
 10
69.025
 20
201.447
 30
0
 11
69.025
 21
192.803
 31
0
  0
ARC
  5
AE7
330
A02
100
AcDbEntity
  8
Shape2DView002
100
AcDbCircle
 10
69.2275
 20
201.798
 30
0
 40
0.405
100
AcDbArc
 50
30
 51
-120
  0
LINE
  5
AE8
330
A02
100
AcDbEntity
  8
Shape2DView002
100
AcDbLine
 10
69.5782
 20
202
 30
0
 11
75
 21
202
 31
0
  0
LINE
  5
AE9
330
A02
100
AcDbEntity
  8
Shape2DView002
100
AcDbLine
 10
75
 20
209
 30
0
 11
75
 21
202
 31
0
  0
LINE
  5
AEA
330
A02
100
AcDbEntity
  8
Shape2DView002
100
AcDbLine
 10
75
 20
209
 30
0
 11
0
 21
209
 31
0
  0
LINE
  5
AEB
330
A02
100
AcDbEntity
  8
Shape2DView002
100
AcDbLine
 10
0
 20
202
 30
0
 11
0
 21
209
 31
0
  0
LINE
  5
AEC
330
A02
100
AcDbEntity
  8
Shape2DView002
100
AcDbLine
 10
1.33227e-15
 20
202
 30
0
 11
5.42176
 21
202
 31
0
  0
ARC
  5
AED
330
A02
100
AcDbEntity
  8
Shape2DView002
100
AcDbCircle
 10
5.7725
 20
201.798
 30
0
 40
0.405
100
AcDbArc
 50
0
 51
150
  0
ARC
  5
AEE
330
A02
100
AcDbEntity
  8
Shape2DView002
100
AcDbCircle
 10
5.7725
 20
201.798
 30
0
 40
0.405
100
AcDbArc
 50
-60
 51
0
  0
LINE
  5
AEF
330
A02
100
AcDbEntity
  8
Shape2DView002
100
AcDbLine
 10
5.975
 20
201.447
 30
0
 11
5.975
 21
192.803
 31
0
  0
ARC
  5
AF0
330
A02
100
AcDbEntity
  8
Shape2DView002
100
AcDbCircle
 10
5.7725
 20
192.452
 30
0
 40
0.405
100
AcDbArc
 50
0
 51
60
  0
ARC
  5
AF1
330
A02
100
AcDbEntity
  8
Shape2DView002
100
AcDbCircle
 10
5.7725
 20
192.452
 30
0
 40
0.405
100
AcDbArc
 50
-150
 51
0
  0
LINE
  5
AF2
330
A02
100
AcDbEntity
  8
Shape2DView002
100
AcDbLine
 10
1.33227e-15
 20
192.25
 30
0
 11
5.42176
 21
192.25
 31
0
  0
LINE
  5
AF3
330
A02
100
AcDbEntity
  8
Shape2DView002
100
AcDbLine
 10
0
 20
178.25
 30
0
 11
0
 21
192.25
 31
0
  0
LINE
  5
AF4
330
A02
100
AcDbEntity
  8
Shape2DView002
100
AcDbLine
 10
1.33227e-15
 20
178.25
 30
0
 11
5.42176
 21
178.25
 31
0
  0
ARC
  5
AF5
330
A02
100
AcDbEntity
  8
Shape2DView002
100
AcDbCircle
 10
5.7725
 20
178.048
 30
0
 40
0.405
100
AcDbArc
 50
0
 51
150
  0
ARC
  5
AF6
330
A02
100
AcDbEntity
  8
Shape2DView002
100
AcDbCircle
 10
5.7725
 20
178.048
 30
0
 40
0.405
100
AcDbArc
 50
-60
 51
0
  0
LINE
  5
AF7
330
A02
100
AcDbEntity
  8
Shape2DView002
100
AcDbLine
 10
5.975
 20
177.697
 30
0
 11
5.975
 21
169.053
 31
0
  0
ARC
  5
AF8
330
A02
100
AcDbEntity
  8
Shape2DView002
100
AcDbCircle
 10
5.7725
 20
168.702
 30
0
 40
0.405
100
AcDbArc
 50
0
 51
60
  0
ARC
  5
AF9
330
A02
100
AcDbEntity
  8
Shape2DView002
100
AcDbCircle
 10
5.7725
 20
168.702
 30
0
 40
0.405
100
AcDbArc
 50
-150
 51
0
  0
LINE
  5
AFA
330
A02
100
AcDbEntity
  8
Shape2DView002
100
AcDbLine
 10
1.33227e-15
 20
168.5
 30
0
 11
5.42176
 21
168.5
 31
0
  0
LINE
  5
AFB
330
A02
100
AcDbEntity
  8
Shape2DView002
100
AcDbLine
 10
0
 20
154.5
 30
0
 11
0
 21
168.5
 31
0
  0
LINE
  5
AFC
330
A02
100
AcDbEntity
  8
Shape2DView002
100
AcDbLine
 10
1.33227e-15
 20
154.5
 30
0
 11
5.42176
 21
154.5
 31
0
  0
ARC
  5
AFD
330
A02
100
AcDbEntity
  8
Shape2DView002
100
AcDbCircle
 10
5.7725
 20
154.298
 30
0
 40
0.405
100
AcDbArc
 50
0
 51
150
  0
ARC
  5
AFE
330
A02
100
AcDbEntity
  8
Shape2DView002
100
AcDbCircle
 10
5.7725
 20
154.298
 30
0
 40
0.405
100
AcDbArc
 50
-60
 51
0
  0
LINE
  5
AFF
330
A02
100
AcDbEntity
  8
Shape2DView002
100
AcDbLine
 10
5.975
 20
153.947
 30
0
 11
5.975
 21
145.303
 31
0
  0
ARC
  5
B00
330
A02
100
AcDbEntity
  8
Shape2DView002
100
AcDbCircle
 10
5.7725
 20
144.952
 30
0
 40
0.405
100
AcDbArc
 50
0
 51
60
  0
ARC
  5
B01
330
A02
100
AcDbEntity
  8
Shape2DView002
100
AcDbCircle
 10
5.7725
 20
144.952
 30
0
 40
0.405
100
AcDbArc
 50
-150
 51
0
  0
LINE
  5
B02
330
A02
100
AcDbEntity
  8
Shape2DView002
100
AcDbLine
 10
1.33227e-15
 20
144.75
 30
0
 11
5.42176
 21
144.75
 31
0
  0
LINE
  5
B03
330
A02
100
AcDbEntity
  8
Shape2DView002
100
AcDbLine
 10
0
 20
130.75
 30
0
 11
0
 21
144.75
 31
0
  0
LINE
  5
B04
330
A02
100
AcDbEntity
  8
Shape2DView002
100
AcDbLine
 10
1.33227e-15
 20
130.75
 30
0
 11
5.42176
 21
130.75
 31
0
  0
ARC
  5
B05
330
A02
100
AcDbEntity
  8
Shape2DView002
100
AcDbCircle
 10
5.7725
 20
130.548
 30
0
 40
0.405
100
AcDbArc
 50
0
 51
150
  0
ARC
  5
B06
330
A02
100
AcDbEntity
  8
Shape2DView002
100
AcDbCircle
 10
5.7725
 20
130.548
 30
0
 40
0.405
100
AcDbArc
 50
-60
 51
0
  0
LINE
  5
B07
330
A02
100
AcDbEntity
  8
Shape2DView002
100
AcDbLine
 10
5.975
 20
130.197
 30
0
 11
5.975
 21
121.553
 31
0
  0
ARC
  5
B08
330
A02
100
AcDbEntity
  8
Shape2DView002
100
AcDbCircle
 10
5.7725
 20
121.203
 30
0
 40
0.405
100
AcDbArc
 50
0
 51
60
  0
ARC
  5
B09
330
A02
100
AcDbEntity
  8
Shape2DView002
100
AcDbCircle
 10
5.7725
 20
121.203
 30
0
 40
0.405
100
AcDbArc
 50
-150
 51
0
  0
LINE
  5
B0A
330
A02
100
AcDbEntity
  8
Shape2DView002
100
AcDbLine
 10
1.33227e-15
 20
121
 30
0
 11
5.42176
 21
121
 31
0
  0
LINE
  5
B0B
330
A02
100
AcDbEntity
  8
Shape2DView002
100
AcDbLine
 10
75
 20
114
 30
0
 11
0
 21
114
 31
0
  0
LINE
  5
B0C
330
A02
100
AcDbEntity
  8
Shape2DView002
100
AcDbLine
 10
35.0669
 20
121
 30
0
 11
39.9331
 21
121
 31
0
  0
ARC
  5
B0D
330
A02
100
AcDbEntity
  8
Shape2DView002
100
AcDbCircle
 10
34.7233
 20
121.198
 30
0
 40
0.396667
100
AcDbArc
 50
120
 51
-30
  0
LINE
  5
B0E
330
A02
100
AcDbEntity
  8
Shape2DView002
100
AcDbLine
 10
34.525
 20
130.208
 30
0
 11
34.525
 21
121.542
 31
0
  0
ARC
  5
B0F
330
A02
100
AcDbEntity
  8
Shape2DView002
100
AcDbCircle
 10
34.7233
 20
130.552
 30
0
 40
0.396667
100
AcDbArc
 50
30
 51
-120
  0
LINE
  5
B10
330
A02
100
AcDbEntity
  8
Shape2DView002
100
AcDbLine
 10
35.0669
 20
130.75
 30
0
 11
39.9331
 21
130.75
 31
0
  0
ARC
  5
B11
330
A02
100
AcDbEntity
  8
Shape2DView002
100
AcDbCircle
 10
40.2767
 20
130.552
 30
0
 40
0.396667
100
AcDbArc
 50
0
 51
150
  0
ARC
  5
B12
330
A02
100
AcDbEntity
  8
Shape2DView002
100
AcDbCircle
 10
40.2767
 20
130.552
 30
0
 40
0.396667
100
AcDbArc
 50
-60
 51
0
  0
LINE
  5
B13
330
A02
100
AcDbEntity
  8
Shape2DView002
100
AcDbLine
 10
40.475
 20
130.208
 30
0
 11
40.475
 21
121.542
 31
0
  0
ARC
  5
B14
330
A02
100
AcDbEntity
  8
Shape2DView002
100
AcDbCircle
 10
40.2767
 20
121.198
 30
0
 40
0.396667
100
AcDbArc
 50
0
 51
60
  0
ARC
  5
B15
330
A02
100
AcDbEntity
  8
Shape2DView002
100
AcDbCircle
 10
40.2767
 20
121.198
 30
0
 40
0.396667
100
AcDbArc
 50
-150
 51
0
  0
LINE
  5
B16
330
A02
100
AcDbEntity
  8
Shape2DView002
100
AcDbLine
 10
35.0669
 20
144.75
 30
0
 11
39.9331
 21
144.75
 31
0
  0
ARC
  5
B17
330
A02
100
AcDbEntity
  8
Shape2DView002
100
AcDbCircle
 10
34.7233
 20
144.948
 30
0
 40
0.396667
100
AcDbArc
 50
120
 51
-30
  0
LINE
  5
B18
330
A02
100
AcDbEntity
  8
Shape2DView002
100
AcDbLine
 10
34.525
 20
153.958
 30
0
 11
34.525
 21
145.292
 31
0
  0
ARC
  5
B19
330
A02
100
AcDbEntity
  8
Shape2DView002
100
AcDbCircle
 10
34.7233
 20
154.302
 30
0
 40
0.396667
100
AcDbArc
 50
30
 51
-120
  0
LINE
  5
B1A
330
A02
100
AcDbEntity
  8
Shape2DView002
100
AcDbLine
 10
35.0669
 20
154.5
 30
0
 11
39.9331
 21
154.5
 31
0
  0
ARC
  5
B1B
330
A02
100
AcDbEntity
  8
Shape2DView002
100
AcDbCircle
 10
40.2767
 20
154.302
 30
0
 40
0.396667
100
AcDbArc
 50
0
 51
150
  0
ARC
  5
B1C
330
A02
100
AcDbEntity
  8
Shape2DView002
100
AcDbCircle
 10
40.2767
 20
154.302
 30
0
 40
0.396667
100
AcDbArc
 50
-60
 51
0
  0
LINE
  5
B1D
330
A02
100
AcDbEntity
  8
Shape2DView002
100
AcDbLine
 10
40.475
 20
153.958
 30
0
 11
40.475
 21
145.292
 31
0
  0
ARC
  5
B1E
330
A02
100
AcDbEntity
  8
Shape2DView002
100
AcDbCircle
 10
40.2767
 20
144.948
 30
0
 40
0.396667
100
AcDbArc
 50
0
 51
60
  0
ARC
  5
B1F
330
A02
100
AcDbEntity
  8
Shape2DView002
100
AcDbCircle
 10
40.2767
 20
144.948
 30
0
 40
0.396667
100
AcDbArc
 50
-150
 51
0
  0
LINE
  5
B20
330
A02
100
AcDbEntity
  8
Shape2DView002
100
AcDbLine
 10
35.0669
 20
168.5
 30
0
 11
39.9331
 21
168.5
 31
0
  0
ARC
  5
B21
330
A02
100
AcDbEntity
  8
Shape2DView002
100
AcDbCircle
 10
34.7233
 20
168.698
 30
0
 40
0.396667
100
AcDbArc
 50
120
 51
-30
  0
LINE
  5
B22
330
A02
100
AcDbEntity
  8
Shape2DView002
100
AcDbLine
 10
34.525
 20
177.708
 30
0
 11
34.525
 21
169.042
 31
0
  0
ARC
  5
B23
330
A02
100
AcDbEntity
  8
Shape2DView002
100
AcDbCircle
 10
34.7233
 20
178.052
 30
0
 40
0.396667
100
AcDbArc
 50
30
 51
-120
  0
LINE
  5
B24
330
A02
100
AcDbEntity
  8
Shape2DView002
100
AcDbLine
 10
35.0669
 20
178.25
 30
0
 11
39.9331
 21
178.25
 31
0
  0
ARC
  5
B25
330
A02
100
AcDbEntity
  8
Shape2DView002
100
AcDbCircle
 10
40.2767
 20
178.052
 30
0
 40
0.396667
100
AcDbArc
 50
0
 51
150
  0
ARC
  5
B26
330
A02
100
AcDbEntity
  8
Shape2DView002
100
AcDbCircle
 10
40.2767
 20
178.052
 30
0
 40
0.396667
100
AcDbArc
 50
-60
 51
0
  0
LINE
  5
B27
330
A02
100
AcDbEntity
  8
Shape2DView002
100
AcDbLine
 10
40.475
 20
177.708
 30
0
 11
40.475
 21
169.042
 31
0
  0
ARC
  5
B28
330
A02
100
AcDbEntity
  8
Shape2DView002
100
AcDbCircle
 10
40.2767
 20
168.698
 30
0
 40
0.396667
100
AcDbArc
 50
0
 51
60
  0
ARC
  5
B29
330
A02
100
AcDbEntity
  8
Shape2DView002
100
AcDbCircle
 10
40.2767
 20
168.698
 30
0
 40
0.396667
100
AcDbArc
 50
-150
 51
0
  0
LINE
  5
B2A
330
A02
100
AcDbEntity
  8
Shape2DView002
100
AcDbLine
 10
35.0669
 20
192.25
 30
0
 11
39.9331
 21
192.25
 31
0
  0
ARC
  5
B2B
330
A02
100
AcDbEntity
  8
Shape2DView002
100
AcDbCircle
 10
34.7233
 20
192.448
 30
0
 40
0.396667
100
AcDbArc
 50
120
 51
-30
  0
LINE
  5
B2C
330
A02
100
AcDbEntity
  8
Shape2DView002
100
AcDbLine
 10
34.525
 20
201.458
 30
0
 11
34.525
 21
192.792
 31
0
  0
ARC
  5
B2D
330
A02
100
AcDbEntity
  8
Shape2DView002
100
AcDbCircle
 10
34.7233
 20
201.802
 30
0
 40
0.396667
100
AcDbArc
 50
30
 51
-120
  0
LINE
  5
B2E
330
A02
100
AcDbEntity
  8
Shape2DView002
100
AcDbLine
 10
35.0669
 20
202
 30
0
 11
39.9331
 21
202
 31
0
  0
ARC
  5
B2F
330
A02
100
AcDbEntity
  8
Shape2DView002
100
AcDbCircle
 10
40.2767
 20
201.802
 30
0
 40
0.396667
100
AcDbArc
 50
0
 51
150
  0
ARC
  5
B30
330
A02
100
AcDbEntity
  8
Shape2DView002
100
AcDbCircle
 10
40.2767
 20
201.802
 30
0
 40
0.396667
100
AcDbArc
 50
-60
 51
0
  0
LINE
  5
B31
330
A02
100
AcDbEntity
  8
Shape2DView002
100
AcDbLine
 10
40.475
 20
201.458
 30
0
 11
40.475
 21
192.792
 31
0
  0
ARC
  5
B32
330
A02
100
AcDbEntity
  8
Shape2DView002
100
AcDbCircle
 10
40.2767
 20
192.448
 30
0
 40
0.396667
100
AcDbArc
 50
0
 51
60
  0
ARC
  5
B33
330
A02
100
AcDbEntity
  8
Shape2DView002
100
AcDbCircle
 10
40.2767
 20
192.448
 30
0
 40
0.396667
100
AcDbArc
 50
-150
 51
0
  0
LINE
  5
B34
330
A02
100
AcDbEntity
  8
Shape2DView003
100
AcDbLine
 10
195
 20
183
 30
0
 11
189.725
 21
183
 31
0
  0
LINE
  5
B35
330
A02
100
AcDbEntity
  8
Shape2DView003
100
AcDbLine
 10
195
 20
183
 30
0
 11
186
 21
120
 31
0
  0
LINE
  5
B36
330
A02
100
AcDbEntity
  8
Shape2DView003
100
AcDbLine
 10
179.25
 20
120
 30
0
 11
186
 21
120
 31
0
  0
LINE
  5
B37
330
A02
100
AcDbEntity
  8
Shape2DView003
100
AcDbLine
 10
189.725
 20
183
 30
0
 11
189.725
 21
189
 31
0
  0
LINE
  5
B38
330
A02
100
AcDbEntity
  8
Shape2DView003
100
AcDbLine
 10
179.475
 20
189
 30
0
 11
189.725
 21
189
 31
0
  0
LINE
  5
B39
330
A02
100
AcDbEntity
  8
Shape2DView003
100
AcDbLine
 10
179.475
 20
183
 30
0
 11
179.475
 21
189
 31
0
  0
LINE
  5
B3A
330
A02
100
AcDbEntity
  8
Shape2DView003
100
AcDbLine
 10
179.475
 20
183
 30
0
 11
168.925
 21
183
 31
0
  0
LINE
  5
B3B
330
A02
100
AcDbEntity
  8
Shape2DView003
100
AcDbLine
 10
168.925
 20
183
 30
0
 11
168.925
 21
189
 31
0
  0
LINE
  5
B3C
330
A02
100
AcDbEntity
  8
Shape2DView003
100
AcDbLine
 10
158.675
 20
189
 30
0
 11
168.925
 21
189
 31
0
  0
LINE
  5
B3D
330
A02
100
AcDbEntity
  8
Shape2DView003
100
AcDbLine
 10
158.675
 20
183
 30
0
 11
158.675
 21
189
 31
0
  0
LINE
  5
B3E
330
A02
100
AcDbEntity
  8
Shape2DView003
100
AcDbLine
 10
158.675
 20
183
 30
0
 11
148.125
 21
183
 31
0
  0
LINE
  5
B3F
330
A02
100
AcDbEntity
  8
Shape2DView003
100
AcDbLine
 10
148.125
 20
183
 30
0
 11
148.125
 21
189
 31
0
  0
LINE
  5
B40
330
A02
100
AcDbEntity
  8
Shape2DView003
100
AcDbLine
 10
137.875
 20
189
 30
0
 11
148.125
 21
189
 31
0
  0
LINE
  5
B41
330
A02
100
AcDbEntity
  8
Shape2DView003
100
AcDbLine
 10
137.875
 20
183
 30
0
 11
137.875
 21
189
 31
0
  0
LINE
  5
B42
330
A02
100
AcDbEntity
  8
Shape2DView003
100
AcDbLine
 10
137.875
 20
183
 30
0
 11
127.325
 21
183
 31
0
  0
LINE
  5
B43
330
A02
100
AcDbEntity
  8
Shape2DView003
100
AcDbLine
 10
127.325
 20
183
 30
0
 11
127.325
 21
189
 31
0
  0
LINE
  5
B44
330
A02
100
AcDbEntity
  8
Shape2DView003
100
AcDbLine
 10
117.075
 20
189
 30
0
 11
127.325
 21
189
 31
0
  0
LINE
  5
B45
330
A02
100
AcDbEntity
  8
Shape2DView003
100
AcDbLine
 10
117.075
 20
183
 30
0
 11
117.075
 21
189
 31
0
  0
LINE
  5
B46
330
A02
100
AcDbEntity
  8
Shape2DView003
100
AcDbLine
 10
117.075
 20
183
 30
0
 11
106.525
 21
183
 31
0
  0
LINE
  5
B47
330
A02
100
AcDbEntity
  8
Shape2DView003
100
AcDbLine
 10
106.525
 20
183
 30
0
 11
106.525
 21
189
 31
0
  0
LINE
  5
B48
330
A02
100
AcDbEntity
  8
Shape2DView003
100
AcDbLine
 10
96.275
 20
189
 30
0
 11
106.525
 21
189
 31
0
  0
LINE
  5
B49
330
A02
100
AcDbEntity
  8
Shape2DView003
100
AcDbLine
 10
96.275
 20
183
 30
0
 11
96.275
 21
189
 31
0
  0
LINE
  5
B4A
330
A02
100
AcDbEntity
  8
Shape2DView003
100
AcDbLine
 10
91
 20
120
 30
0
 11
97.75
 21
120
 31
0
  0
LINE
  5
B4B
330
A02
100
AcDbEntity
  8
Shape2DView003
100
AcDbLine
 10
97.75
 20
120
 30
0
 11
97.75
 21
114
 31
0
  0
LINE
  5
B4C
330
A02
100
AcDbEntity
  8
Shape2DView003
100
AcDbLine
 10
91
 20
125.375
 30
0
 11
91
 21
120
 31
0
  0
LINE
  5
B4D
330
A02
100
AcDbEntity
  8
Shape2DView003
100
AcDbLine
 10
108
 20
114
 30
0
 11
97.75
 21
114
 31
0
  0
LINE
  5
B4E
330
A02
100
AcDbEntity
  8
Shape2DView003
100
AcDbLine
 10
91
 20
125.375
 30
0
 11
85
 21
125.375
 31
0
  0
LINE
  5
B4F
330
A02
100
AcDbEntity
  8
Shape2DView003
100
AcDbLine
 10
85
 20
125.375
 30
0
 11
85
 21
135.625
 31
0
  0
LINE
  5
B50
330
A02
100
AcDbEntity
  8
Shape2DView003
100
AcDbLine
 10
91
 20
183
 30
0
 11
91
 21
177.625
 31
0
  0
LINE
  5
B51
330
A02
100
AcDbEntity
  8
Shape2DView003
100
AcDbLine
 10
96.275
 20
183
 30
0
 11
91
 21
183
 31
0
  0
LINE
  5
B52
330
A02
100
AcDbEntity
  8
Shape2DView003
100
AcDbLine
 10
91
 20
177.625
 30
0
 11
85
 21
177.625
 31
0
  0
LINE
  5
B53
330
A02
100
AcDbEntity
  8
Shape2DView003
100
AcDbLine
 10
85
 20
167.375
 30
0
 11
85
 21
177.625
 31
0
  0
LINE
  5
B54
330
A02
100
AcDbEntity
  8
Shape2DView003
100
AcDbLine
 10
91
 20
167.375
 30
0
 11
85
 21
167.375
 31
0
  0
LINE
  5
B55
330
A02
100
AcDbEntity
  8
Shape2DView003
100
AcDbLine
 10
91
 20
167.375
 30
0
 11
91
 21
156.625
 31
0
  0
LINE
  5
B56
330
A02
100
AcDbEntity
  8
Shape2DView003
100
AcDbLine
 10
91
 20
156.625
 30
0
 11
85
 21
156.625
 31
0
  0
LINE
  5
B57
330
A02
100
AcDbEntity
  8
Shape2DView003
100
AcDbLine
 10
85
 20
146.375
 30
0
 11
85
 21
156.625
 31
0
  0
LINE
  5
B58
330
A02
100
AcDbEntity
  8
Shape2DView003
100
AcDbLine
 10
91
 20
146.375
 30
0
 11
85
 21
146.375
 31
0
  0
LINE
  5
B59
330
A02
100
AcDbEntity
  8
Shape2DView003
100
AcDbLine
 10
91
 20
146.375
 30
0
 11
91
 21
135.625
 31
0
  0
LINE
  5
B5A
330
A02
100
AcDbEntity
  8
Shape2DView003
100
AcDbLine
 10
91
 20
135.625
 30
0
 11
85
 21
135.625
 31
0
  0
LINE
  5
B5B
330
A02
100
AcDbEntity
  8
Shape2DView003
100
AcDbLine
 10
108
 20
120
 30
0
 11
108
 21
114
 31
0
  0
LINE
  5
B5C
330
A02
100
AcDbEntity
  8
Shape2DView003
100
AcDbLine
 10
108
 20
120
 30
0
 11
121.5
 21
120
 31
0
  0
LINE
  5
B5D
330
A02
100
AcDbEntity
  8
Shape2DView003
100
AcDbLine
 10
121.5
 20
120
 30
0
 11
121.5
 21
114
 31
0
  0
LINE
  5
B5E
330
A02
100
AcDbEntity
  8
Shape2DView003
100
AcDbLine
 10
131.75
 20
114
 30
0
 11
121.5
 21
114
 31
0
  0
LINE
  5
B5F
330
A02
100
AcDbEntity
  8
Shape2DView003
100
AcDbLine
 10
131.75
 20
120
 30
0
 11
131.75
 21
114
 31
0
  0
LINE
  5
B60
330
A02
100
AcDbEntity
  8
Shape2DView003
100
AcDbLine
 10
131.75
 20
120
 30
0
 11
145.25
 21
120
 31
0
  0
LINE
  5
B61
330
A02
100
AcDbEntity
  8
Shape2DView003
100
AcDbLine
 10
145.25
 20
120
 30
0
 11
145.25
 21
114
 31
0
  0
LINE
  5
B62
330
A02
100
AcDbEntity
  8
Shape2DView003
100
AcDbLine
 10
155.5
 20
114
 30
0
 11
145.25
 21
114
 31
0
  0
LINE
  5
B63
330
A02
100
AcDbEntity
  8
Shape2DView003
100
AcDbLine
 10
155.5
 20
120
 30
0
 11
155.5
 21
114
 31
0
  0
LINE
  5
B64
330
A02
100
AcDbEntity
  8
Shape2DView003
100
AcDbLine
 10
155.5
 20
120
 30
0
 11
169
 21
120
 31
0
  0
LINE
  5
B65
330
A02
100
AcDbEntity
  8
Shape2DView003
100
AcDbLine
 10
169
 20
120
 30
0
 11
169
 21
114
 31
0
  0
LINE
  5
B66
330
A02
100
AcDbEntity
  8
Shape2DView003
100
AcDbLine
 10
179.25
 20
114
 30
0
 11
169
 21
114
 31
0
  0
LINE
  5
B67
330
A02
100
AcDbEntity
  8
Shape2DView003
100
AcDbLine
 10
179.25
 20
120
 30
0
 11
179.25
 21
114
 31
0
  0
LINE
  5
B68
330
A02
100
AcDbEntity
  8
Shape2DView004
100
AcDbLine
 10
110
 20
288
 30
0
 11
104.725
 21
288
 31
0
  0
LINE
  5
B69
330
A02
100
AcDbEntity
  8
Shape2DView004
100
AcDbLine
 10
110
 20
288
 30
0
 11
101
 21
225
 31
0
  0
LINE
  5
B6A
330
A02
100
AcDbEntity
  8
Shape2DView004
100
AcDbLine
 10
94.25
 20
225
 30
0
 11
101
 21
225
 31
0
  0
LINE
  5
B6B
330
A02
100
AcDbEntity
  8
Shape2DView004
100
AcDbLine
 10
104.725
 20
288
 30
0
 11
104.725
 21
294
 31
0
  0
LINE
  5
B6C
330
A02
100
AcDbEntity
  8
Shape2DView004
100
AcDbLine
 10
94.475
 20
294
 30
0
 11
104.725
 21
294
 31
0
  0
LINE
  5
B6D
330
A02
100
AcDbEntity
  8
Shape2DView004
100
AcDbLine
 10
94.475
 20
288
 30
0
 11
94.475
 21
294
 31
0
  0
LINE
  5
B6E
330
A02
100
AcDbEntity
  8
Shape2DView004
100
AcDbLine
 10
94.475
 20
288
 30
0
 11
83.925
 21
288
 31
0
  0
LINE
  5
B6F
330
A02
100
AcDbEntity
  8
Shape2DView004
100
AcDbLine
 10
83.925
 20
288
 30
0
 11
83.925
 21
294
 31
0
  0
LINE
  5
B70
330
A02
100
AcDbEntity
  8
Shape2DView004
100
AcDbLine
 10
73.675
 20
294
 30
0
 11
83.925
 21
294
 31
0
  0
LINE
  5
B71
330
A02
100
AcDbEntity
  8
Shape2DView004
100
AcDbLine
 10
73.675
 20
288
 30
0
 11
73.675
 21
294
 31
0
  0
LINE
  5
B72
330
A02
100
AcDbEntity
  8
Shape2DView004
100
AcDbLine
 10
73.675
 20
288
 30
0
 11
63.125
 21
288
 31
0
  0
LINE
  5
B73
330
A02
100
AcDbEntity
  8
Shape2DView004
100
AcDbLine
 10
63.125
 20
288
 30
0
 11
63.125
 21
294
 31
0
  0
LINE
  5
B74
330
A02
100
AcDbEntity
  8
Shape2DView004
100
AcDbLine
 10
52.875
 20
294
 30
0
 11
63.125
 21
294
 31
0
  0
LINE
  5
B75
330
A02
100
AcDbEntity
  8
Shape2DView004
100
AcDbLine
 10
52.875
 20
288
 30
0
 11
52.875
 21
294
 31
0
  0
LINE
  5
B76
330
A02
100
AcDbEntity
  8
Shape2DView004
100
AcDbLine
 10
52.875
 20
288
 30
0
 11
42.325
 21
288
 31
0
  0
LINE
  5
B77
330
A02
100
AcDbEntity
  8
Shape2DView004
100
AcDbLine
 10
42.325
 20
288
 30
0
 11
42.325
 21
294
 31
0
  0
LINE
  5
B78
330
A02
100
AcDbEntity
  8
Shape2DView004
100
AcDbLine
 10
32.075
 20
294
 30
0
 11
42.325
 21
294
 31
0
  0
LINE
  5
B79
330
A02
100
AcDbEntity
  8
Shape2DView004
100
AcDbLine
 10
32.075
 20
288
 30
0
 11
32.075
 21
294
 31
0
  0
LINE
  5
B7A
330
A02
100
AcDbEntity
  8
Shape2DView004
100
AcDbLine
 10
32.075
 20
288
 30
0
 11
21.525
 21
288
 31
0
  0
LINE
  5
B7B
330
A02
100
AcDbEntity
  8
Shape2DView004
100
AcDbLine
 10
21.525
 20
288
 30
0
 11
21.525
 21
294
 31
0
  0
LINE
  5
B7C
330
A02
100
AcDbEntity
  8
Shape2DView004
100
AcDbLine
 10
11.275
 20
294
 30
0
 11
21.525
 21
294
 31
0
  0
LINE
  5
B7D
330
A02
100
AcDbEntity
  8
Shape2DView004
100
AcDbLine
 10
11.275
 20
288
 30
0
 11
11.275
 21
294
 31
0
  0
LINE
  5
B7E
330
A02
100
AcDbEntity
  8
Shape2DView004
100
AcDbLine
 10
6
 20
225
 30
0
 11
12.75
 21
225
 31
0
  0
LINE
  5
B7F
330
A02
100
AcDbEntity
  8
Shape2DView004
100
AcDbLine
 10
12.75
 20
225
 30
0
 11
12.75
 21
219
 31
0
  0
LINE
  5
B80
330
A02
100
AcDbEntity
  8
Shape2DView004
100
AcDbLine
 10
6
 20
230.375
 30
0
 11
6
 21
225
 31
0
  0
LINE
  5
B81
330
A02
100
AcDbEntity
  8
Shape2DView004
100
AcDbLine
 10
23
 20
219
 30
0
 11
12.75
 21
219
 31
0
  0
LINE
  5
B82
330
A02
100
AcDbEntity
  8
Shape2DView004
100
AcDbLine
 10
6
 20
230.375
 30
0
 11
-1.77636e-15
 21
230.375
 31
0
  0
LINE
  5
B83
330
A02
100
AcDbEntity
  8
Shape2DView004
100
AcDbLine
 10
-1.77636e-15
 20
230.375
 30
0
 11
-1.77636e-15
 21
240.625
 31
0
  0
LINE
  5
B84
330
A02
100
AcDbEntity
  8
Shape2DView004
100
AcDbLine
 10
6
 20
288
 30
0
 11
6
 21
282.625
 31
0
  0
LINE
  5
B85
330
A02
100
AcDbEntity
  8
Shape2DView004
100
AcDbLine
 10
11.275
 20
288
 30
0
 11
6
 21
288
 31
0
  0
LINE
  5
B86
330
A02
100
AcDbEntity
  8
Shape2DView004
100
AcDbLine
 10
6
 20
282.625
 30
0
 11
-1.77636e-15
 21
282.625
 31
0
  0
LINE
  5
B87
330
A02
100
AcDbEntity
  8
Shape2DView004
100
AcDbLine
 10
-1.77636e-15
 20
272.375
 30
0
 11
-1.77636e-15
 21
282.625
 31
0
  0
LINE
  5
B88
330
A02
100
AcDbEntity
  8
Shape2DView004
100
AcDbLine
 10
6
 20
272.375
 30
0
 11
-1.77636e-15
 21
272.375
 31
0
  0
LINE
  5
B89
330
A02
100
AcDbEntity
  8
Shape2DView004
100
AcDbLine
 10
6
 20
272.375
 30
0
 11
6
 21
261.625
 31
0
  0
LINE
  5
B8A
330
A02
100
AcDbEntity
  8
Shape2DView004
100
AcDbLine
 10
6
 20
261.625
 30
0
 11
-1.77636e-15
 21
261.625
 31
0
  0
LINE
  5
B8B
330
A02
100
AcDbEntity
  8
Shape2DView004
100
AcDbLine
 10
-1.77636e-15
 20
251.375
 30
0
 11
-1.77636e-15
 21
261.625
 31
0
  0
LINE
  5
B8C
330
A02
100
AcDbEntity
  8
Shape2DView004
100
AcDbLine
 10
6
 20
251.375
 30
0
 11
-1.77636e-15
 21
251.375
 31
0
  0
LINE
  5
B8D
330
A02
100
AcDbEntity
  8
Shape2DView004
100
AcDbLine
 10
6
 20
251.375
 30
0
 11
6
 21
240.625
 31
0
  0
LINE
  5
B8E
330
A02
100
AcDbEntity
  8
Shape2DView004
100
AcDbLine
 10
6
 20
240.625
 30
0
 11
-1.77636e-15
 21
240.625
 31
0
  0
LINE
  5
B8F
330
A02
100
AcDbEntity
  8
Shape2DView004
100
AcDbLine
 10
23
 20
225
 30
0
 11
23
 21
219
 31
0
  0
LINE
  5
B90
330
A02
100
AcDbEntity
  8
Shape2DView004
100
AcDbLine
 10
23
 20
225
 30
0
 11
36.5
 21
225
 31
0
  0
LINE
  5
B91
330
A02
100
AcDbEntity
  8
Shape2DView004
100
AcDbLine
 10
36.5
 20
225
 30
0
 11
36.5
 21
219
 31
0
  0
LINE
  5
B92
330
A02
100
AcDbEntity
  8
Shape2DView004
100
AcDbLine
 10
46.75
 20
219
 30
0
 11
36.5
 21
219
 31
0
  0
LINE
  5
B93
330
A02
100
AcDbEntity
  8
Shape2DView004
100
AcDbLine
 10
46.75
 20
225
 30
0
 11
46.75
 21
219
 31
0
  0
LINE
  5
B94
330
A02
100
AcDbEntity
  8
Shape2DView004
100
AcDbLine
 10
46.75
 20
225
 30
0
 11
60.25
 21
225
 31
0
  0
LINE
  5
B95
330
A02
100
AcDbEntity
  8
Shape2DView004
100
AcDbLine
 10
60.25
 20
225
 30
0
 11
60.25
 21
219
 31
0
  0
LINE
  5
B96
330
A02
100
AcDbEntity
  8
Shape2DView004
100
AcDbLine
 10
70.5
 20
219
 30
0
 11
60.25
 21
219
 31
0
  0
LINE
  5
B97
330
A02
100
AcDbEntity
  8
Shape2DView004
100
AcDbLine
 10
70.5
 20
225
 30
0
 11
70.5
 21
219
 31
0
  0
LINE
  5
B98
330
A02
100
AcDbEntity
  8
Shape2DView004
100
AcDbLine
 10
70.5
 20
225
 30
0
 11
84
 21
225
 31
0
  0
LINE
  5
B99
330
A02
100
AcDbEntity
  8
Shape2DView004
100
AcDbLine
 10
84
 20
225
 30
0
 11
84
 21
219
 31
0
  0
LINE
  5
B9A
330
A02
100
AcDbEntity
  8
Shape2DView004
100
AcDbLine
 10
94.25
 20
219
 30
0
 11
84
 21
219
 31
0
  0
LINE
  5
B9B
330
A02
100
AcDbEntity
  8
Shape2DView004
100
AcDbLine
 10
94.25
 20
225
 30
0
 11
94.25
 21
219
 31
0
  0
LINE
  5
B9C
330
A02
100
AcDbEntity
  8
Shape2DView005
100
AcDbLine
 10
230
 20
288
 30
0
 11
224.725
 21
288
 31
0
  0
LINE
  5
B9D
330
A02
100
AcDbEntity
  8
Shape2DView005
100
AcDbLine
 10
230
 20
288
 30
0
 11
221
 21
225
 31
0
  0
LINE
  5
B9E
330
A02
100
AcDbEntity
  8
Shape2DView005
100
AcDbLine
 10
214.25
 20
225
 30
0
 11
221
 21
225
 31
0
  0
LINE
  5
B9F
330
A02
100
AcDbEntity
  8
Shape2DView005
100
AcDbLine
 10
224.725
 20
288
 30
0
 11
224.725
 21
294
 31
0
  0
LINE
  5
BA0
330
A02
100
AcDbEntity
  8
Shape2DView005
100
AcDbLine
 10
214.475
 20
294
 30
0
 11
224.725
 21
294
 31
0
  0
LINE
  5
BA1
330
A02
100
AcDbEntity
  8
Shape2DView005
100
AcDbLine
 10
214.475
 20
288
 30
0
 11
214.475
 21
294
 31
0
  0
LINE
  5
BA2
330
A02
100
AcDbEntity
  8
Shape2DView005
100
AcDbLine
 10
214.475
 20
288
 30
0
 11
203.925
 21
288
 31
0
  0
LINE
  5
BA3
330
A02
100
AcDbEntity
  8
Shape2DView005
100
AcDbLine
 10
203.925
 20
288
 30
0
 11
203.925
 21
294
 31
0
  0
LINE
  5
BA4
330
A02
100
AcDbEntity
  8
Shape2DView005
100
AcDbLine
 10
193.675
 20
294
 30
0
 11
203.925
 21
294
 31
0
  0
LINE
  5
BA5
330
A02
100
AcDbEntity
  8
Shape2DView005
100
AcDbLine
 10
193.675
 20
288
 30
0
 11
193.675
 21
294
 31
0
  0
LINE
  5
BA6
330
A02
100
AcDbEntity
  8
Shape2DView005
100
AcDbLine
 10
193.675
 20
288
 30
0
 11
183.125
 21
288
 31
0
  0
LINE
  5
BA7
330
A02
100
AcDbEntity
  8
Shape2DView005
100
AcDbLine
 10
183.125
 20
288
 30
0
 11
183.125
 21
294
 31
0
  0
LINE
  5
BA8
330
A02
100
AcDbEntity
  8
Shape2DView005
100
AcDbLine
 10
172.875
 20
294
 30
0
 11
183.125
 21
294
 31
0
  0
LINE
  5
BA9
330
A02
100
AcDbEntity
  8
Shape2DView005
100
AcDbLine
 10
172.875
 20
288
 30
0
 11
172.875
 21
294
 31
0
  0
LINE
  5
BAA
330
A02
100
AcDbEntity
  8
Shape2DView005
100
AcDbLine
 10
172.875
 20
288
 30
0
 11
162.325
 21
288
 31
0
  0
LINE
  5
BAB
330
A02
100
AcDbEntity
  8
Shape2DView005
100
AcDbLine
 10
162.325
 20
288
 30
0
 11
162.325
 21
294
 31
0
  0
LINE
  5
BAC
330
A02
100
AcDbEntity
  8
Shape2DView005
100
AcDbLine
 10
152.075
 20
294
 30
0
 11
162.325
 21
294
 31
0
  0
LINE
  5
BAD
330
A02
100
AcDbEntity
  8
Shape2DView005
100
AcDbLine
 10
152.075
 20
288
 30
0
 11
152.075
 21
294
 31
0
  0
LINE
  5
BAE
330
A02
100
AcDbEntity
  8
Shape2DView005
100
AcDbLine
 10
152.075
 20
288
 30
0
 11
141.525
 21
288
 31
0
  0
LINE
  5
BAF
330
A02
100
AcDbEntity
  8
Shape2DView005
100
AcDbLine
 10
141.525
 20
288
 30
0
 11
141.525
 21
294
 31
0
  0
LINE
  5
BB0
330
A02
100
AcDbEntity
  8
Shape2DView005
100
AcDbLine
 10
131.275
 20
294
 30
0
 11
141.525
 21
294
 31
0
  0
LINE
  5
BB1
330
A02
100
AcDbEntity
  8
Shape2DView005
100
AcDbLine
 10
131.275
 20
288
 30
0
 11
131.275
 21
294
 31
0
  0
LINE
  5
BB2
330
A02
100
AcDbEntity
  8
Shape2DView005
100
AcDbLine
 10
126
 20
225
 30
0
 11
132.75
 21
225
 31
0
  0
LINE
  5
BB3
330
A02
100
AcDbEntity
  8
Shape2DView005
100
AcDbLine
 10
132.75
 20
225
 30
0
 11
132.75
 21
219
 31
0
  0
LINE
  5
BB4
330
A02
100
AcDbEntity
  8
Shape2DView005
100
AcDbLine
 10
126
 20
230.375
 30
0
 11
126
 21
225
 31
0
  0
LINE
  5
BB5
330
A02
100
AcDbEntity
  8
Shape2DView005
100
AcDbLine
 10
143
 20
219
 30
0
 11
132.75
 21
219
 31
0
  0
LINE
  5
BB6
330
A02
100
AcDbEntity
  8
Shape2DView005
100
AcDbLine
 10
126
 20
230.375
 30
0
 11
120
 21
230.375
 31
0
  0
LINE
  5
BB7
330
A02
100
AcDbEntity
  8
Shape2DView005
100
AcDbLine
 10
120
 20
230.375
 30
0
 11
120
 21
240.625
 31
0
  0
LINE
  5
BB8
330
A02
100
AcDbEntity
  8
Shape2DView005
100
AcDbLine
 10
126
 20
288
 30
0
 11
126
 21
282.625
 31
0
  0
LINE
  5
BB9
330
A02
100
AcDbEntity
  8
Shape2DView005
100
AcDbLine
 10
131.275
 20
288
 30
0
 11
126
 21
288
 31
0
  0
LINE
  5
BBA
330
A02
100
AcDbEntity
  8
Shape2DView005
100
AcDbLine
 10
126
 20
282.625
 30
0
 11
120
 21
282.625
 31
0
  0
LINE
  5
BBB
330
A02
100
AcDbEntity
  8
Shape2DView005
100
AcDbLine
 10
120
 20
272.375
 30
0
 11
120
 21
282.625
 31
0
  0
LINE
  5
BBC
330
A02
100
AcDbEntity
  8
Shape2DView005
100
AcDbLine
 10
126
 20
272.375
 30
0
 11
120
 21
272.375
 31
0
  0
LINE
  5
BBD
330
A02
100
AcDbEntity
  8
Shape2DView005
100
AcDbLine
 10
126
 20
272.375
 30
0
 11
126
 21
261.625
 31
0
  0
LINE
  5
BBE
330
A02
100
AcDbEntity
  8
Shape2DView005
100
AcDbLine
 10
126
 20
261.625
 30
0
 11
120
 21
261.625
 31
0
  0
LINE
  5
BBF
330
A02
100
AcDbEntity
  8
Shape2DView005
100
AcDbLine
 10
120
 20
251.375
 30
0
 11
120
 21
261.625
 31
0
  0
LINE
  5
BC0
330
A02
100
AcDbEntity
  8
Shape2DView005
100
AcDbLine
 10
126
 20
251.375
 30
0
 11
120
 21
251.375
 31
0
  0
LINE
  5
BC1
330
A02
100
AcDbEntity
  8
Shape2DView005
100
AcDbLine
 10
126
 20
251.375
 30
0
 11
126
 21
240.625
 31
0
  0
LINE
  5
BC2
330
A02
100
AcDbEntity
  8
Shape2DView005
100
AcDbLine
 10
126
 20
240.625
 30
0
 11
120
 21
240.625
 31
0
  0
LINE
  5
BC3
330
A02
100
AcDbEntity
  8
Shape2DView005
100
AcDbLine
 10
143
 20
225
 30
0
 11
143
 21
219
 31
0
  0
LINE
  5
BC4
330
A02
100
AcDbEntity
  8
Shape2DView005
100
AcDbLine
 10
143
 20
225
 30
0
 11
156.5
 21
225
 31
0
  0
LINE
  5
BC5
330
A02
100
AcDbEntity
  8
Shape2DView005
100
AcDbLine
 10
156.5
 20
225
 30
0
 11
156.5
 21
219
 31
0
  0
LINE
  5
BC6
330
A02
100
AcDbEntity
  8
Shape2DView005
100
AcDbLine
 10
166.75
 20
219
 30
0
 11
156.5
 21
219
 31
0
  0
LINE
  5
BC7
330
A02
100
AcDbEntity
  8
Shape2DView005
100
AcDbLine
 10
166.75
 20
225
 30
0
 11
166.75
 21
219
 31
0
  0
LINE
  5
BC8
330
A02
100
AcDbEntity
  8
Shape2DView005
100
AcDbLine
 10
166.75
 20
225
 30
0
 11
180.25
 21
225
 31
0
  0
LINE
  5
BC9
330
A02
100
AcDbEntity
  8
Shape2DView005
100
AcDbLine
 10
180.25
 20
225
 30
0
 11
180.25
 21
219
 31
0
  0
LINE
  5
BCA
330
A02
100
AcDbEntity
  8
Shape2DView005
100
AcDbLine
 10
190.5
 20
219
 30
0
 11
180.25
 21
219
 31
0
  0
LINE
  5
BCB
330
A02
100
AcDbEntity
  8
Shape2DView005
100
AcDbLine
 10
190.5
 20
225
 30
0
 11
190.5
 21
219
 31
0
  0
LINE
  5
BCC
330
A02
100
AcDbEntity
  8
Shape2DView005
100
AcDbLine
 10
190.5
 20
225
 30
0
 11
204
 21
225
 31
0
  0
LINE
  5
BCD
330
A02
100
AcDbEntity
  8
Shape2DView005
100
AcDbLine
 10
204
 20
225
 30
0
 11
204
 21
219
 31
0
  0
LINE
  5
BCE
330
A02
100
AcDbEntity
  8
Shape2DView005
100
AcDbLine
 10
214.25
 20
219
 30
0
 11
204
 21
219
 31
0
  0
LINE
  5
BCF
330
A02
100
AcDbEntity
  8
Shape2DView005
100
AcDbLine
 10
214.25
 20
225
 30
0
 11
214.25
 21
219
 31
0
  0
ENDSEC
  0
SECTION
  2
OBJECTS
  0
DICTIONARY
  5
F000
330
0
100
AcDbDictionary
  3
ACAD_GROUP
350
F001
  0
DICTIONARY
  5
F001
330
F000
100
AcDbDictionary
  0
ENDSEC
  0
EOF